<?xml version="1.0" encoding="UTF-8"?>
<svg xmlns="http://www.w3.org/2000/svg" xmlns:xlink="http://www.w3.org/1999/xlink" width="736px" height="736px" viewBox="0 0 736 736" version="1.1">
<defs>
<clipPath id="clip1">
  <path d="M 212 197 L 525.996094 197 L 525.996094 538.40625 L 212 538.40625 Z M 212 197 "/>
</clipPath>
</defs>
<g id="surface1">
<rect x="0" y="0" width="736" height="736" style="fill:rgb(100%,100%,100%);fill-opacity:1;stroke:none;"/>
<g clip-path="url(#clip1)" clip-rule="nonzero">
<path style=" stroke:none;fill-rule:evenodd;fill:rgb(0%,0%,0%);fill-opacity:1;" d="M 389.136719 440.996094 C 371.839844 449.34375 351.0625 443.816406 340.292969 427.929688 C 357.527344 419.558594 378.378906 425.132812 389.136719 440.996094 Z M 403.375 487.269531 C 414.144531 471.386719 434.914062 465.863281 452.210938 474.207031 C 441.453125 490.085938 420.609375 495.632812 403.375 487.269531 Z M 471.851562 483.328125 C 474.941406 429.878906 516.160156 412.820312 515.523438 319.523438 C 515.292969 290.214844 504.351562 264.316406 483.796875 244.621094 C 458.988281 220.816406 420.449219 206.792969 383.234375 208.050781 C 346.886719 209.269531 315.160156 224.417969 296.164062 249.613281 C 286.511719 262.414062 284.863281 275.324219 283.121094 288.988281 C 281.105469 304.25 279.089844 320.03125 265.863281 335.699219 C 265.820312 335.769531 265.773438 335.839844 265.679688 335.898438 L 224.800781 379.652344 C 221.621094 383.066406 222.363281 388.261719 226.175781 390.691406 L 250.84375 406.347656 C 253.597656 408.105469 255.652344 410.375 257.117188 413.300781 L 263.210938 425.445312 L 272.136719 430.773438 C 273.460938 431.585938 274.375 432.992188 274.558594 434.5625 C 274.949219 437.558594 273.003906 438.941406 270.992188 440.964844 C 273.15625 445.25 274.542969 448.046875 273.875 453.34375 L 270.671875 479.011719 C 269.277344 490.121094 278.875 499.351562 289.945312 497.582031 L 343.089844 489.085938 C 346.976562 488.472656 350.6875 489.609375 353.570312 492.285156 C 356.363281 494.875 357.734375 498.347656 357.503906 502.105469 L 358.691406 525.871094 C 358.785156 527.007812 359.703125 527.894531 360.847656 527.894531 L 391.0625 527.894531 L 391.0625 451.429688 C 385.105469 453.914062 378.703125 455.183594 372.246094 455.183594 C 354.015625 455.183594 336.734375 444.804688 328.53125 428.351562 C 327.382812 426.011719 328.117188 423.144531 330.363281 421.703125 C 349.652344 409.207031 374.632812 411.632812 391.0625 427.394531 L 391.0625 396.542969 C 361.714844 382.421875 330.539062 350.582031 319.054688 318.003906 L 300.792969 317.929688 C 297.902344 317.914062 295.617188 315.589844 295.617188 312.746094 C 295.664062 309.902344 297.949219 307.609375 300.792969 307.609375 L 316.082031 307.671875 C 314.976562 302.75 314.433594 297.859375 314.433594 293.042969 C 314.433594 266.109375 336.359375 244.207031 363.316406 244.207031 C 375.589844 244.207031 387.257812 248.777344 396.230469 256.902344 C 405.207031 248.777344 416.921875 244.207031 429.140625 244.207031 C 456.152344 244.207031 478.078125 266.109375 478.078125 293.042969 C 478.078125 297.566406 477.570312 302.160156 476.613281 306.78125 L 491.53125 306.375 C 494.4375 306.335938 496.753906 308.558594 496.847656 311.398438 C 496.9375 314.25 494.691406 316.617188 491.808594 316.695312 L 473.730469 317.183594 C 462.46875 350.042969 431.019531 382.296875 401.402344 396.542969 L 401.402344 473.675781 C 417.789062 457.960938 442.957031 455.445312 462.148438 467.988281 C 464.347656 469.421875 465.121094 472.289062 463.933594 474.636719 C 452.25 497.6875 424.917969 507.441406 401.402344 497.710938 L 401.402344 527.894531 L 471.851562 527.894531 C 473.195312 527.894531 474.089844 526.839844 474 525.597656 C 473.003906 511.4375 471.140625 496.246094 471.851562 483.328125 Z M 354.898438 318.160156 C 356.707031 318.160156 358.371094 317.246094 359.335938 315.699219 L 369.089844 299.875 L 391.652344 342.859375 C 393.613281 346.539062 398.90625 346.527344 400.804688 342.859375 L 423.375 299.875 L 433.128906 315.699219 C 434.132812 317.269531 435.871094 318.210938 437.707031 318.152344 L 462.605469 317.484375 C 451.253906 346.289062 422.777344 375.0625 396.230469 387.582031 C 369.863281 375.144531 341.617188 346.671875 330.089844 318.050781 Z M 324.730469 293.042969 C 324.730469 271.804688 342.03125 254.527344 363.316406 254.527344 C 374.441406 254.527344 385.019531 259.316406 392.339844 267.660156 C 394.417969 270.003906 398.089844 270.003906 400.125 267.660156 C 407.445312 259.316406 418.015625 254.527344 429.140625 254.527344 C 450.433594 254.527344 467.734375 271.804688 467.734375 293.042969 C 467.734375 297.613281 467.089844 302.3125 465.949219 307.066406 L 440.402344 307.753906 L 427.449219 286.742188 C 425.285156 283.296875 420.269531 283.566406 418.429688 287.054688 L 396.230469 329.34375 L 374.035156 287.054688 C 372.179688 283.542969 367.15625 283.320312 365.054688 286.742188 L 352.0625 307.824219 L 326.699219 307.71875 C 325.417969 302.742188 324.730469 297.820312 324.730469 293.042969 Z M 498.992188 431.992188 C 511.71875 406.082031 526.1875 376.703125 525.816406 319.453125 C 525.632812 287.292969 513.597656 258.84375 490.980469 237.183594 C 477.25 224.011719 459.585938 213.425781 439.945312 206.570312 C 421.496094 200.152344 401.773438 197.09375 382.910156 197.730469 C 343.40625 199.058594 308.753906 215.710938 287.929688 243.410156 C 276.621094 258.390625 274.695312 273.277344 272.816406 287.675781 C 270.992188 302.050781 269.253906 315.636719 258.035156 328.953125 L 217.203125 372.609375 C 209.738281 380.613281 211.292969 393.460938 220.640625 399.394531 L 245.308594 415.050781 C 246.5 415.800781 247.28125 416.660156 247.871094 417.917969 L 254.648438 431.402344 C 255.0625 432.277344 255.746094 433.011719 256.617188 433.519531 L 261.105469 436.226562 L 261.058594 436.292969 C 259.457031 437.867188 259.085938 440.265625 260.054688 442.25 L 262.9375 447.933594 C 263.617188 449.304688 263.800781 450.539062 263.617188 452.066406 L 260.414062 477.734375 C 258.160156 495.640625 273.699219 510.628906 291.539062 507.777344 L 344.730469 499.285156 C 346.21875 499.046875 347.363281 500.328125 347.207031 501.585938 C 347.054688 502.765625 348.242188 523.355469 348.394531 526.386719 C 348.71875 533.015625 354.207031 538.214844 360.847656 538.214844 L 471.851562 538.214844 C 479.152344 538.214844 484.847656 532.066406 484.304688 524.804688 C 483.300781 511.40625 481.558594 495.519531 482.195312 483.90625 C 483.300781 463.839844 490.574219 449.082031 498.992188 431.992188 Z M 498.992188 431.992188 "/>
</g>
</g>
</svg>
