<?xml version="1.0" encoding="UTF-8"?>
<svg xmlns="http://www.w3.org/2000/svg" xmlns:xlink="http://www.w3.org/1999/xlink" width="736px" height="736px" viewBox="0 0 736 736" version="1.1">
<defs>
<clipPath id="clip1">
  <path d="M 178 180 L 559.359375 180 L 559.359375 555.433594 L 178 555.433594 Z M 178 180 "/>
</clipPath>
</defs>
<g id="surface1">
<rect x="0" y="0" width="736" height="736" style="fill:rgb(100%,100%,100%);fill-opacity:1;stroke:none;"/>
<g clip-path="url(#clip1)" clip-rule="nonzero">
<path style=" stroke:none;fill-rule:evenodd;fill:rgb(0%,0%,0%);fill-opacity:1;" d="M 187.195312 418.617188 C 187.511719 418.808594 187.824219 419 188.148438 419.144531 C 187.75 418.355469 188.515625 418.921875 188.824219 418.515625 C 189.105469 418.125 187.042969 417.402344 191.085938 418.125 C 195.4375 418.914062 199.433594 417.933594 203.71875 417.59375 C 204.921875 417.496094 209.15625 417.183594 210.105469 416.769531 C 210.863281 416.4375 211.039062 416.722656 211.261719 416.574219 L 214.605469 415.511719 C 218.875 414.121094 226.25 409.46875 228.878906 406.140625 L 230.535156 403.664062 L 228.550781 403.226562 C 222.671875 402.507812 219.25 402.792969 213.46875 404.148438 L 208.226562 405.851562 C 205.558594 406.992188 207.046875 406.035156 204.054688 407.890625 L 201.28125 409.492188 C 200.597656 409.96875 198 411.777344 197.242188 411.960938 C 195.867188 412.296875 190.863281 416.398438 189.988281 416.085938 C 189.488281 415.917969 188.667969 416.460938 188.421875 416.523438 C 187.65625 416.960938 187.65625 417.011719 187.265625 417.589844 C 187.160156 417.25 187.144531 416.8125 186.789062 416.523438 C 186.574219 416.332031 187.082031 415.625 186.796875 414.828125 C 186.460938 413.894531 187.28125 413.425781 187.019531 411.523438 C 186.90625 410.695312 188.253906 409.300781 188.953125 407.742188 C 190.148438 405.082031 192.394531 403.40625 192.585938 402.746094 C 192.894531 401.703125 193.714844 401.671875 193.945312 400.953125 C 193.960938 400.898438 193.980469 400.851562 194.019531 400.851562 C 194.402344 400.753906 195.300781 399.371094 195.601562 399.003906 L 197.242188 397.792969 C 200.285156 395.125 203.472656 393.421875 207.605469 392.257812 C 208.128906 392.113281 208.609375 391.875 209.132812 391.726562 C 216.070312 389.726562 225.597656 388.738281 232.574219 391 L 236.832031 392.546875 C 237.964844 393.277344 239.300781 393.566406 240.433594 394.296875 C 240.925781 394.640625 241.4375 394.933594 241.953125 395.222656 C 244.558594 396.671875 245.671875 399.777344 244.710938 402.5 C 243.378906 406.300781 243.777344 405.695312 241.414062 409.628906 C 238.058594 415.226562 230.445312 420.601562 224.28125 423.125 C 224.050781 423.214844 223.828125 423.316406 223.605469 423.414062 C 218.4375 425.90625 211.628906 427.085938 205.902344 427.195312 C 205.296875 427.210938 204.914062 427.011719 204.246094 427.148438 C 203.183594 427.371094 202.976562 426.71875 202.554688 426.613281 C 201.371094 426.421875 198.996094 426.136719 197.324219 425.546875 C 195.03125 424.742188 195.445312 424.601562 193.53125 424.144531 C 192.523438 423.898438 191.542969 423.859375 191.46875 423.316406 C 191.320312 422.242188 187.144531 422.164062 186.117188 418.269531 C 186.09375 418.171875 186.132812 418.070312 186.148438 417.980469 C 186.613281 418.125 186.875 418.371094 187.195312 418.617188 Z M 185.203125 331.175781 C 185.082031 330.304688 185.203125 328.847656 185.742188 328.210938 L 186.675781 330.347656 C 186.804688 329.691406 186.628906 329.957031 187.574219 330.25 C 187.824219 330.058594 187.582031 329.765625 187.75 329.574219 C 188.214844 329.574219 190.308594 332.136719 191.710938 333.117188 C 193.746094 334.535156 195.785156 335.914062 198.023438 336.996094 C 199.242188 337.585938 204.039062 340.761719 205.8125 341.367188 C 206.769531 341.558594 206.523438 341.886719 206.871094 341.894531 L 210.203125 342.96875 C 213.714844 343.957031 217.367188 344.417969 221.007812 344.472656 C 224.59375 344.515625 226.917969 344.117188 230.03125 342.824219 L 228.695312 341.265625 C 227.09375 339.617188 223.652344 337.058594 221.6875 335.875 C 219 334.257812 212.421875 331.546875 208.953125 330.933594 L 202.953125 330.304688 C 202.222656 330.304688 198.894531 330.148438 198.246094 329.867188 C 197.148438 329.382812 195.570312 329.804688 194.265625 329.519531 C 193.46875 329.351562 190.5 329.519531 189.941406 328.992188 C 189.191406 328.277344 187.703125 328.25 186.867188 328.554688 C 186.976562 328.21875 187.210938 327.871094 187.113281 327.4375 C 187.042969 327.113281 187.773438 327.023438 188.117188 326.03125 C 188.453125 325.058594 189.390625 325.167969 190.226562 323.554688 C 190.664062 322.707031 192.488281 322.527344 194.027344 321.617188 C 196.550781 320.121094 199.316406 320.175781 199.921875 319.675781 C 200.367188 319.316406 202.707031 319.003906 203.375 318.847656 C 205.152344 318.296875 204.078125 318.410156 205.972656 318.410156 L 209.148438 318.3125 C 212.089844 318.242188 216.8125 319.492188 219.757812 320.550781 C 227.003906 323.148438 234.363281 327.65625 239.136719 333.792969 C 239.789062 334.628906 241.324219 336.652344 241.660156 337.53125 C 242.160156 338.789062 243.054688 339.808594 243.53125 341.074219 C 243.730469 341.65625 243.976562 342.1875 244.230469 342.722656 C 245.472656 345.4375 244.542969 348.59375 242.167969 350.242188 C 237.898438 353.140625 235.375 354.597656 229.953125 355.488281 C 224.378906 356.398438 219.007812 356.09375 213.523438 354.851562 L 207.71875 353.304688 C 203.878906 351.976562 199.578125 349.652344 196.273438 347.332031 C 195.730469 346.949219 195.722656 346.664062 194.964844 346.3125 C 193.929688 345.835938 194.265625 345.175781 193.898438 344.90625 C 193.492188 344.515625 193.070312 344.179688 192.746094 343.695312 C 192.710938 343.636719 189.789062 340.890625 188.929688 338.644531 C 188.523438 337.59375 186.5 336.40625 186.890625 335.683594 C 187.28125 334.964844 185.539062 333.421875 185.203125 331.175781 Z M 545.582031 416.476562 C 545.582031 416.429688 545.589844 416.429688 545.605469 416.429688 C 545.613281 416.476562 545.691406 416.476562 545.582031 416.476562 Z M 543.246094 415.648438 C 543.246094 415.65625 542.101562 416.148438 541.78125 415.847656 C 541.242188 415.355469 540.199219 416.773438 539.1875 416.667969 C 538.167969 416.566406 533.347656 417.089844 532.910156 416.722656 C 532.273438 416.175781 532.351562 416.546875 530.664062 416.332031 C 529.09375 416.140625 528.507812 416.253906 526.46875 415.847656 C 522.789062 415.105469 516.839844 412.980469 514.019531 410.65625 C 511.113281 408.265625 509.457031 407.109375 507.289062 403.71875 C 513.390625 402.332031 517.09375 402.179688 523.519531 403.957031 C 523.886719 404.054688 524.300781 404.054688 524.660156 404.246094 C 525.351562 404.59375 526.0625 404.832031 526.792969 405.121094 C 528.433594 405.703125 530.59375 406.945312 532.566406 407.597656 C 532.996094 407.738281 532.957031 408.179688 534.734375 408.617188 C 535.484375 408.800781 535.417969 409.101562 535.578125 409.101562 C 536.289062 409.101562 536.351562 409.828125 537.082031 409.828125 C 537.710938 409.828125 539.410156 411.976562 540.667969 412.789062 C 541.933594 413.609375 542.148438 415.050781 542.832031 415.21875 C 543.074219 415.265625 543.28125 415.363281 543.476562 415.457031 C 543.398438 415.511719 543.320312 415.554688 543.246094 415.648438 Z M 546.472656 405.511719 C 546.074219 403.796875 543.46875 401.105469 542.210938 399.878906 C 539.128906 396.886719 532.582031 393.125 528.449219 391.726562 C 521.363281 389.335938 514.625 388.859375 507.273438 390.371094 C 504.878906 390.863281 500.089844 392.769531 497.933594 393.867188 L 494.636719 395.90625 C 492.359375 397.308594 491.378906 400.222656 492.445312 402.792969 C 493.992188 406.296875 494.660156 407.667969 497.023438 410.511719 C 497.703125 411.332031 498.300781 412.257812 499.144531 412.886719 L 500.394531 414.199219 C 506.023438 419.71875 511.359375 422.746094 518.886719 424.679688 C 519.992188 424.964844 522.175781 425.570312 523.234375 425.5 C 523.601562 425.476562 523.410156 425.867188 524.699219 425.792969 C 526.261719 425.699219 531.414062 426.835938 535.890625 425.261719 C 538.308594 424.410156 540.03125 423.539062 542.132812 422.105469 C 542.523438 421.835938 547.738281 417.742188 546.777344 417.25 C 546.519531 417.121094 546.304688 417.496094 545.941406 416.867188 L 545.566406 416.53125 C 545.566406 416.476562 545.574219 416.476562 545.574219 416.476562 L 546.671875 416.820312 L 547.4375 416.429688 C 548.160156 415.535156 548.503906 415.347656 548.566406 413.855469 C 548.742188 409.730469 547.039062 407.628906 546.472656 405.511719 Z M 509.457031 339.808594 C 511.113281 337.945312 512.9375 336.496094 515.117188 335.246094 C 516.3125 334.566406 520.667969 332.335938 521.871094 332.144531 C 522.621094 331.996094 523.363281 331.804688 524.101562 331.558594 L 530.234375 330.203125 L 531.707031 330.058594 C 533.628906 329.328125 533.300781 329.699219 533.554688 329.621094 C 534.6875 329.269531 534.582031 329.699219 535.195312 329.328125 C 535.785156 328.984375 538.46875 329.675781 539.839844 329.574219 C 541.152344 329.484375 542.394531 330.554688 542.992188 330.25 C 543.230469 330.15625 543.453125 330.105469 543.667969 330.105469 L 542.921875 331.269531 C 542.601562 331.667969 542.371094 331.132812 542.09375 331.660156 C 541.113281 333.601562 541.6875 333.054688 539.34375 334.863281 C 538.914062 335.195312 536.367188 337.386719 535.863281 337.332031 C 535.132812 337.265625 535.203125 337.601562 533.84375 338.351562 C 533.078125 338.835938 532.3125 339.371094 531.492188 339.808594 C 528.242188 341.605469 524.214844 342.585938 520.628906 343.351562 L 517.046875 343.597656 C 513.207031 343.398438 511.367188 343.351562 507.535156 341.949219 Z M 545.980469 329.667969 C 545.980469 329.667969 545.972656 329.667969 545.980469 329.621094 C 545.996094 329.621094 546.066406 329.621094 545.980469 329.667969 Z M 493.566406 340.929688 L 492.699219 343.058594 C 491.703125 345.582031 492.613281 348.496094 494.984375 349.953125 C 498.042969 351.730469 499.875 352.683594 503.238281 353.496094 C 504.265625 353.738281 505.273438 354.125 506.34375 354.175781 L 508.132812 354.515625 C 515.175781 355.863281 524.714844 354.445312 531.167969 351.210938 C 531.867188 350.871094 532.640625 350.726562 533.238281 350.144531 C 533.570312 349.882812 533.507812 350.351562 534.589844 349.515625 L 536.996094 348.058594 C 543.429688 343.980469 546.296875 339.265625 547.585938 331.707031 C 548.167969 328.261719 547.140625 330.289062 546.488281 329.765625 L 545.980469 329.71875 C 546.058594 329.460938 546.933594 329.34375 547.070312 329.328125 L 547.453125 328.554688 C 547.492188 326.960938 547.707031 327.527344 547.171875 326.414062 C 546.394531 324.835938 544.066406 322.550781 542.546875 321.707031 C 541.765625 321.273438 540.976562 320.886719 540.238281 320.304688 C 538.039062 318.425781 530.734375 317.753906 527.664062 318.121094 L 525.550781 318.3125 C 524.8125 318.128906 518.734375 319.410156 517.578125 319.769531 C 509.816406 322.183594 502.8125 326.769531 497.957031 333.355469 L 494.15625 339.472656 C 493.917969 339.957031 493.78125 340.492188 493.566406 340.929688 Z M 274.257812 209.140625 C 274.558594 207.941406 273.644531 205.859375 274.375 205.496094 C 274.789062 205.289062 274.949219 203.65625 274.949219 203.65625 C 274.703125 201.761719 276.835938 198.804688 277.824219 198.804688 C 277.808594 199.425781 277.417969 200.0625 277.296875 201.128906 C 277.6875 200.652344 277.578125 200.882812 278.085938 201.5625 C 278.566406 201.496094 278.730469 199.761719 279.1875 203.558594 C 279.71875 207.941406 282.386719 212.183594 283.898438 216.269531 L 286.289062 221.269531 C 287.015625 222.109375 286.566406 222.050781 286.832031 222.289062 C 287 222.425781 289.453125 226.34375 292.253906 228.886719 C 295.816406 232.140625 297.496094 233.65625 302.183594 235.871094 L 305.019531 236.699219 C 305.019531 234.214844 303.46875 228.542969 302.359375 226.167969 C 301.03125 223.335938 298.363281 218.539062 296.164062 216.125 C 294.171875 213.9375 296.03125 215.472656 292.9375 212.78125 L 290.527344 210.640625 C 290.023438 210.34375 287.324219 208.140625 286.933594 207.535156 C 286.203125 206.402344 284.871094 205.894531 283.933594 204.914062 C 283.304688 204.261719 280.769531 202.507812 280.707031 201.863281 C 280.628906 201.003906 279.566406 200.007812 278.523438 199.722656 C 279.933594 198.828125 279.167969 198.851562 280.007812 198.804688 C 281.429688 198.726562 280.9375 198.175781 281.964844 198.175781 C 284.488281 198.175781 283.597656 196.988281 286.617188 197.976562 C 289.195312 198.828125 288.71875 197.816406 293.6875 200.117188 C 294.371094 200.429688 294.523438 200.070312 295.304688 200.550781 C 296.253906 201.136719 296.019531 200.859375 296.507812 201.035156 C 297.136719 201.570312 297.972656 201.71875 298.753906 201.957031 L 300.425781 203.175781 C 306.566406 206.332031 312.847656 216.414062 315.046875 222.625 C 316.808594 227.601562 317.898438 231.449219 317.691406 236.890625 C 317.644531 237.675781 317.746094 238.496094 317.53125 239.269531 C 317.183594 240.578125 317.324219 241.9375 316.964844 243.246094 C 316.785156 243.832031 316.671875 244.414062 316.558594 244.996094 C 315.890625 248.230469 313.183594 249.972656 309.910156 249.847656 C 305.640625 249.695312 303.476562 249.328125 299.527344 247.808594 C 294.683594 245.753906 289.824219 242.34375 286.21875 238.496094 C 281.679688 233.640625 279.027344 230.152344 276.421875 223.890625 C 275.664062 222.066406 275.316406 221.3125 274.867188 219.472656 C 274.664062 218.652344 274.152344 218.332031 274.558594 217.433594 C 274.78125 216.9375 273.53125 212.335938 274.257812 209.140625 Z M 432.078125 232.332031 C 432.652344 228.902344 432.660156 228.429688 433.949219 225.292969 C 434.433594 224.128906 436.832031 219.632812 437.558594 218.84375 C 438.089844 218.261719 438.5625 217.679688 439.039062 217.097656 C 439.898438 215.832031 441.09375 214.957031 441.976562 213.792969 C 443.53125 211.808594 443.707031 212.058594 444.3125 211.414062 C 444.660156 210.933594 444.898438 210.25 445.472656 210.011719 C 445.503906 210.011719 445.519531 210.011719 445.53125 209.960938 C 445.703125 209.445312 446.453125 209.355469 446.699219 208.746094 C 446.867188 208.355469 448.84375 207.292969 448.96875 207.246094 C 450.316406 206.707031 450.96875 205.6875 451.875 205.597656 C 453.453125 205.429688 453.550781 204.816406 454.011719 204.378906 C 454.15625 204.675781 454.234375 205.894531 453.867188 206.078125 C 453.183594 206.425781 454.257812 207.789062 453.851562 208.792969 C 453.566406 209.5 452.457031 214.558594 451.949219 214.8125 C 451.214844 215.1875 451.445312 215.679688 451.253906 216.222656 C 451.167969 216.414062 451.015625 216.660156 450.9375 216.851562 C 449.425781 220.683594 448.53125 222.082031 446.160156 225.246094 C 442.957031 229.53125 438.417969 232.953125 433.398438 234.707031 L 431.800781 235.242188 Z M 455.585938 202.585938 C 455.597656 202.585938 455.636719 202.585938 455.636719 202.585938 Z M 419.242188 238.886719 L 420.457031 244.851562 C 421.105469 247.472656 423.566406 249.3125 426.328125 249.074219 C 430.359375 248.660156 431.417969 248.546875 435.097656 247.082031 C 440.765625 244.828125 446.144531 241.539062 450.339844 237.085938 C 452.164062 235.144531 455.269531 231.105469 456.367188 228.835938 C 456.710938 228.105469 457.253906 227.523438 457.410156 226.75 C 457.53125 226.226562 457.851562 226.550781 458.128906 225.4375 L 459.210938 222.824219 C 461.050781 217.671875 461.632812 214.71875 460.335938 209.285156 C 460.015625 207.957031 458.265625 202.667969 457.003906 201.710938 C 456.617188 201.417969 456.925781 202.222656 456.066406 202.390625 L 455.777344 202.492188 C 455.90625 202.148438 456.066406 201.957031 456.304688 201.710938 L 456.167969 200.890625 L 455.246094 199.679688 C 453.691406 198.589844 450.09375 198.046875 448.179688 198.269531 C 447.289062 198.367188 446.429688 198.558594 445.472656 198.460938 C 442.917969 198.335938 437.773438 201.21875 435.4375 202.929688 L 432.453125 205.496094 C 431.257812 206.1875 427.824219 210.097656 426.839844 211.414062 C 423.9375 215.324219 422.546875 217.933594 420.882812 222.722656 C 418.882812 228.453125 418.808594 232.976562 419.242188 238.886719 Z M 438.234375 475.242188 C 435.511719 482.035156 430.023438 492.125 426.527344 497.75 L 421.605469 505.078125 C 419.535156 508.230469 417.136719 511.144531 414.996094 514.25 L 411.507812 518.957031 C 410.964844 519.640625 410.3125 520.269531 409.828125 520.996094 C 409.023438 522.253906 408.351562 523.5625 407.214844 524.585938 C 406.710938 525.199219 407.175781 524.929688 405.71875 526.476562 C 404.578125 527.6875 404.976562 527.6875 403.878906 528.953125 C 401.640625 531.539062 399.105469 533.699219 396.589844 536.566406 C 394.511719 538.9375 391.484375 540.753906 390.707031 542.101562 C 390.292969 542.785156 389.796875 543.414062 389.238281 544.042969 C 389.023438 542.171875 387.679688 536.734375 388.019531 535.9375 C 388.445312 534.933594 386.238281 529.683594 385.800781 527.398438 C 384.660156 521.554688 382 514.601562 379.722656 509.011719 C 379.15625 507.625 379.851562 507.824219 378.351562 505.035156 L 375.582031 499.398438 L 373.382812 495.273438 C 375.46875 492.238281 374.363281 493.234375 376.777344 490.136719 C 377.550781 489.140625 377.667969 489.863281 378.265625 488.828125 C 379.085938 487.402344 380.242188 485.109375 381.410156 483.921875 C 382.589844 482.753906 383.570312 481.398438 384.675781 480.140625 C 385.808594 478.921875 386.890625 477.664062 387.972656 476.398438 C 388.402344 475.914062 388.746094 475.332031 389.207031 474.851562 L 391.90625 472.183594 C 393.414062 471.476562 393.699219 470.464844 394.625 469.460938 C 395.0625 469.023438 395.53125 468.640625 395.960938 468.203125 C 398.980469 465.074219 401.480469 462.363281 404.832031 459.417969 C 418.238281 447.609375 430.476562 439.277344 447.410156 434.140625 C 447.425781 436.617188 447.226562 442.421875 446.820312 444.667969 C 446.390625 447.058594 446.40625 449.113281 445.703125 451.269531 C 445.28125 452.523438 445.15625 453.890625 444.796875 455.191406 C 442.78125 462.714844 441.070312 467.988281 438.234375 475.242188 Z M 384.644531 546.910156 L 385.019531 547.054688 C 385.703125 547.507812 385.742188 546.941406 386.0625 547.347656 L 386.078125 547.347656 C 385.625 545.988281 385.21875 544.625 384.835938 543.222656 C 382.269531 533.617188 375.207031 519.691406 370.5625 510.953125 C 370.15625 510.179688 369.792969 509.351562 369.394531 508.574219 C 366.878906 503.785156 364.804688 500.265625 362.035156 495.664062 C 361.199219 494.277344 360.226562 493.34375 359.597656 491.886719 C 359.511719 491.6875 359.375 491.449219 359.230469 491.304688 C 358.027344 489.890625 357.113281 488.289062 356.039062 486.789062 C 355.035156 485.523438 354.070312 484.164062 353.089844 482.855469 C 345.828125 473.246094 333.820312 460.46875 324.5625 453.160156 C 316.824219 447.050781 316.992188 447.265625 308.773438 442.242188 C 306.820312 441.054688 304.679688 440.226562 302.933594 439.230469 C 299.558594 437.3125 291.746094 434.253906 288.035156 433.21875 C 288.25 445.082031 292.128906 460.382812 296.660156 471.308594 C 300.386719 480.292969 303.300781 486.265625 307.824219 494.398438 C 309.527344 497.390625 311.804688 500.609375 313.261719 503.332031 C 314.132812 504.949219 322.964844 516.710938 324.453125 518.566406 C 326.308594 520.875 332.289062 527.996094 333.539062 529.921875 C 335.5 532.949219 343.175781 541.082031 346.082031 544.722656 C 350.152344 549.816406 360.089844 542.417969 376.148438 544.625 L 382.820312 545.253906 C 383.042969 545.308594 383.210938 544.863281 383.425781 545.5 C 383.523438 545.804688 384.652344 545.828125 385.105469 546.082031 L 384.390625 546.5625 L 384.558594 546.910156 C 384.582031 546.910156 384.621094 546.910156 384.644531 546.910156 Z M 338.375 546.710938 C 337.617188 545.996094 333.371094 546.925781 330.6875 546.472656 C 329.105469 546.242188 314.839844 544.738281 313.230469 544.1875 C 311.628906 543.34375 310.683594 543.660156 309.011719 543.367188 C 298.691406 541.574219 294.378906 540.96875 283.636719 537.832031 C 265.980469 532.679688 255.207031 526.722656 240.394531 515.660156 C 234.222656 511.042969 230.628906 508.238281 224.066406 504.207031 L 213.148438 498.53125 L 204.5 495.128906 C 211.851562 491.578125 219.234375 488.40625 227.21875 486.734375 C 231.011719 485.945312 232.214844 485.523438 236.363281 484.894531 C 240.503906 484.265625 244.636719 483.535156 248.8125 483.191406 C 249.78125 483.144531 250.746094 483.191406 251.695312 483.046875 C 253.742188 482.648438 254.472656 482.441406 256.574219 482.5625 C 256.601562 482.5625 257.785156 482.316406 259.21875 482.371094 C 261.378906 482.441406 261.058594 482.171875 262.605469 482.171875 L 268.878906 482.5625 C 271.953125 482.914062 274.789062 482.625 278.09375 483.246094 C 279.167969 483.445312 282.21875 484.066406 283.175781 483.921875 C 284.664062 483.683594 286.21875 483.683594 287.761719 484.019531 C 291.910156 492.972656 298.96875 505.878906 305.070312 513.476562 L 312.019531 522.0625 C 313.398438 523.417969 314.863281 524.585938 316.074219 526.1875 C 316.128906 526.230469 316.203125 526.332031 316.28125 526.378906 C 317.339844 527.082031 318.640625 529.101562 320.105469 530.066406 C 321.101562 530.726562 326.628906 536.574219 328.683594 538.269531 L 334.566406 542.976562 C 337.089844 545.136719 337.300781 545.714844 340.253906 547 C 339.648438 546.96875 338.78125 547.007812 338.375 546.710938 Z M 372.101562 488.628906 L 374.832031 482.707031 C 379.699219 473.324219 383.058594 467.820312 390.117188 460.144531 C 389.253906 458.265625 388.738281 459.378906 388.386719 456.65625 C 388.21875 455.324219 387.257812 454.234375 386.9375 452.769531 C 386.859375 452.433594 386.183594 449.894531 385.824219 449.566406 C 385.15625 448.96875 385.527344 448.539062 384.875 447.726562 C 384.675781 447.441406 385.105469 447.574219 383.738281 445.640625 C 383.496094 445.304688 383.464844 444.859375 383.308594 444.429688 L 382.136719 441.808594 L 379.164062 433.949219 C 379 433.511719 378.742188 433.074219 378.542969 432.636719 C 377.144531 429.296875 374.882812 424.679688 373.082031 421.574219 L 368.167969 414.246094 C 361.238281 422.917969 357.089844 431.234375 353.3125 441.515625 L 351.90625 445.585938 C 351.601562 446.359375 351.984375 446.746094 351.117188 447.335938 C 350.773438 447.578125 349.484375 451.8125 349.261719 452.332031 C 348.042969 455.269531 348.167969 454.496094 347.90625 457.476562 C 347.828125 458.335938 347.484375 457.300781 347.054688 458.835938 L 352.03125 464.46875 C 354.90625 467.621094 357.464844 471.191406 360.042969 474.558594 C 364.011719 479.75 367.664062 485.460938 370.953125 491.105469 Z M 340.398438 446.605469 C 340.660156 448.601562 340.789062 450.492188 340.820312 452.289062 C 341.242188 452.722656 341.640625 453.109375 342.039062 453.550781 L 341.972656 447.535156 C 342.148438 443.234375 344.339844 437.453125 344.472656 436.371094 C 344.625 435.105469 344.945312 435.34375 344.96875 434.914062 L 346.335938 430.597656 C 349.269531 421.925781 352.054688 416.996094 356.777344 409.390625 C 359.804688 404.507812 360.117188 403.910156 363.746094 399.640625 C 365.808594 397.261719 369.410156 397.019531 371.789062 399.058594 L 373.8125 401.242188 C 374.164062 401.625 374.59375 401.917969 374.921875 402.308594 L 382.128906 411.476562 C 384.804688 415.402344 388.738281 422.488281 390.332031 426.71875 C 391.054688 428.628906 393.261719 434.46875 393.5625 436.417969 L 394.734375 440.105469 C 395.347656 442.613281 396.710938 448.738281 396.207031 450.875 L 395.992188 453.980469 C 396.773438 453.214844 396.480469 453.542969 396.71875 451.75 C 397.21875 448.03125 396.519531 448.332031 397.101562 444.039062 C 397.617188 440.058594 397.984375 436.226562 398.039062 432.539062 C 398.078125 430.101562 399.496094 422.371094 399.976562 419.917969 C 400.613281 416.769531 401.121094 413.515625 401.609375 410.359375 C 403.265625 399.625 405.3125 391.804688 408.027344 381.441406 C 408.792969 378.527344 409.300781 375.898438 410.3125 373 C 412.398438 367.027344 412.480469 366.390625 415.347656 360.289062 C 418.675781 353.210938 419.597656 352.988281 424.289062 348.152344 L 435.621094 336.3125 C 442.855469 328.691406 450.449219 321.417969 457.808594 313.894531 C 461.640625 309.964844 465.527344 306.128906 469.453125 302.296875 L 479.28125 292.398438 C 481.636719 290.082031 482.546875 286.617188 481.480469 283.421875 C 479.40625 277.1875 471.875 276.105469 467.941406 279.589844 L 463.394531 283.765625 L 424.972656 319.230469 C 416.796875 326.738281 408.105469 335.515625 397.714844 340.046875 C 391.152344 342.914062 384.558594 345.222656 377.414062 346.121094 C 360.847656 348.1875 345.628906 345.230469 331.34375 336.167969 C 325.558594 332.503906 322.898438 329.890625 317.945312 325.296875 L 281.34375 291.289062 C 279.773438 289.832031 269.007812 279.582031 267.558594 278.621094 C 261.585938 274.644531 254.378906 279.496094 253.925781 284.640625 C 253.550781 288.878906 254.5625 290.773438 257.363281 293.5625 L 277.878906 314.332031 L 313.703125 350.480469 C 317.621094 354.460938 321.585938 360.195312 322.988281 365.523438 C 323.140625 366.058594 323.378906 366.742188 323.609375 367.324219 C 328.109375 378.792969 332.457031 396.71875 334.214844 408.519531 C 334.773438 412.328125 337.976562 425.484375 337.695312 427.347656 C 337.53125 428.351562 338.660156 435.851562 338.964844 437.390625 C 339.601562 440.449219 340 443.554688 340.398438 446.605469 Z M 556.332031 494.164062 C 545.429688 486.78125 536.03125 481.652344 523.671875 477.371094 C 515.589844 474.710938 502.773438 471.585938 494.882812 471.5 C 492.972656 471.5 491.074219 471.308594 489.171875 471.453125 L 484.609375 471.355469 C 482.839844 471.554688 481.113281 472.035156 479.28125 471.9375 C 479.191406 471.9375 479.097656 471.9375 479.003906 471.992188 C 478.125 472.359375 475.929688 471.992188 474.152344 472.664062 L 471.191406 473.054688 C 468.148438 473.324219 463.425781 474.007812 460.542969 474.804688 C 457.636719 475.601562 453.699219 475.976562 451.660156 476.789062 C 454.871094 468.273438 455.992188 463.402344 457.90625 454.417969 C 459.035156 449.160156 460.007812 441.179688 459.976562 435.835938 C 459.960938 434.433594 459.839844 432.976562 459.9375 431.519531 L 459.140625 424.042969 C 458.4375 421.285156 455.597656 419.582031 452.800781 420.261719 C 444.941406 422.28125 442.328125 423.070312 434.699219 426.28125 C 430.683594 427.96875 425.683594 430.730469 421.917969 432.976562 L 413.921875 438.410156 C 411.023438 440.542969 402.078125 447.824219 399.53125 450.492188 C 400.0625 449.328125 400.144531 449.804688 400.453125 448.699219 C 401.027344 446.707031 401.648438 444.8125 402.179688 442.726562 L 406.441406 425.554688 C 408.527344 417.757812 410.496094 408.128906 412.980469 400.707031 C 413.386719 399.496094 413.808594 398.183594 414.167969 396.871094 C 416.414062 388.882812 422.570312 367.714844 428.875 360.679688 L 435.835938 353.832031 C 440.265625 349.46875 444.660156 345.054688 449.058594 340.636719 C 449.441406 340.246094 449.8125 339.855469 450.210938 339.519531 C 453.4375 336.558594 456.527344 333.40625 459.65625 330.304688 L 487.800781 302.449219 C 490.527344 299.742188 492.308594 297.664062 493.765625 293.761719 C 499.53125 278.316406 486.6875 261.769531 469.367188 264.835938 C 462.253906 266.101562 458.460938 270.457031 453.453125 275.078125 L 406.714844 318.605469 C 403.359375 321.761719 400.652344 323.933594 396.503906 326.371094 C 398.699219 320.773438 399.035156 314.210938 397.707031 308.367188 L 397.0625 306.328125 C 397.085938 305.492188 396.527344 304.804688 396.144531 303.761719 C 394.980469 300.554688 391.628906 295.6875 388.839844 293.472656 C 385.480469 290.796875 380.191406 288.902344 375.917969 288.765625 C 374.292969 288.710938 370.746094 288.664062 369.28125 289.347656 C 368.582031 289.667969 369.59375 289.769531 369.710938 290.074219 C 369.257812 291.050781 369.132812 290.367188 369.59375 290.949219 C 369.195312 291.027344 368.414062 291.125 368.136719 291.433594 C 370.007812 293.625 373.605469 292.738281 373.917969 293.855469 C 374.140625 294.628906 376.242188 294.269531 377.277344 295.21875 C 378.226562 296.03125 383.195312 299.683594 383.171875 300.703125 C 383.15625 301.554688 383.671875 301.605469 384.191406 302.351562 C 386.820312 306.113281 387.886719 310.03125 387.910156 314.53125 C 387.957031 321.371094 383.371094 328.339844 377.160156 331.125 C 374.769531 332.195312 372.222656 332.980469 369.617188 333.308594 C 366.253906 333.738281 367.984375 333.308594 365.109375 333.308594 C 363.835938 333.308594 363.914062 332.980469 362.617188 332.679688 C 359.246094 331.898438 353.832031 327.957031 352.121094 324.960938 C 350.464844 322.085938 349.195312 319.355469 349.046875 315.789062 C 349.039062 315.308594 348.871094 314.824219 348.941406 314.386719 C 349.476562 310.683594 349.039062 311.050781 350.421875 307.058594 L 351.714844 303.808594 C 351.898438 303.414062 352.277344 303.125 352.414062 302.742188 C 352.867188 301.429688 352.519531 301.8125 353.441406 300.746094 C 353.472656 300.703125 353.488281 300.65625 353.496094 300.65625 C 353.625 299.867188 354.398438 299.828125 354.691406 298.90625 C 354.996094 297.941406 358.625 295.78125 359.375 295.121094 C 360.722656 293.957031 362.71875 293.949219 363.253906 293.28125 C 364.265625 292.007812 365.652344 292.253906 366.113281 291.578125 C 366.558594 290.925781 367.058594 291.296875 367.179688 290.996094 C 367.402344 290.558594 367.761719 290.460938 368.136719 290.269531 C 367.210938 289.730469 367.5 289.578125 367.011719 289.203125 C 365.667969 288.175781 366.246094 287.785156 364.234375 287.355469 C 361.957031 286.878906 358.632812 286.679688 356.378906 287.308594 L 352.8125 288.28125 C 350.949219 288.550781 347.039062 291.15625 345.804688 292.40625 C 341.78125 296.4375 340.492188 298.09375 338.375 303.222656 C 335.316406 310 335.054688 318.535156 337.703125 325.394531 C 331.039062 321.417969 325.050781 314.984375 319.03125 309.917969 L 312.132812 303.660156 L 277.703125 272.3125 L 275.117188 270.082031 C 263.082031 261.164062 246.789062 267.628906 243.5 281.199219 C 241.675781 288.695312 243.9375 295.390625 249.296875 300.703125 L 262.324219 313.558594 C 265 316.179688 267.660156 318.847656 270.351562 321.472656 C 273.355469 324.332031 276.214844 327.4375 279.320312 330.203125 C 279.703125 330.539062 280.125 330.976562 280.453125 331.324219 C 283.054688 334.199219 285.046875 335.929688 287.738281 338.550781 L 308.589844 359.175781 C 314.578125 365.148438 321.777344 388.171875 324.183594 396.390625 C 328.425781 410.894531 332.425781 427.285156 335.484375 442.097656 C 335.929688 444.238281 336.359375 446.367188 336.820312 448.453125 C 327.089844 439.761719 318.824219 433.082031 306.835938 427.15625 C 301.796875 424.664062 293.304688 421.3125 287.738281 420.21875 L 282.746094 419.097656 C 279.394531 418.660156 276.335938 421.039062 275.894531 424.386719 C 273.53125 442.152344 278.453125 461.234375 285.101562 477.863281 C 281.082031 476.285156 280.769531 476 276.152344 474.75 C 274.28125 474.222656 272.382812 473.832031 270.5625 473.203125 C 266.769531 471.867188 259.632812 471.4375 255.367188 471.207031 C 246.988281 470.765625 245.148438 471.277344 237.734375 471.84375 C 233.808594 472.082031 231.074219 472.726562 227.386719 473.449219 C 224.695312 473.96875 224.871094 473.769531 222.171875 474.511719 C 219.757812 475.171875 217.734375 475.585938 215.273438 476.453125 C 213.148438 477.136719 211.007812 477.855469 208.894531 478.636719 L 199.785156 482.761719 C 191.476562 486.964844 188.347656 489.125 181.125 494.261719 C 176.089844 497.851562 178.3125 506.167969 185.265625 506 C 190.402344 505.878906 192.570312 505.53125 198.535156 506.726562 C 205.367188 508.101562 216.46875 513.867188 222.308594 518.035156 L 227.507812 521.332031 C 229.316406 522.597656 231.066406 523.957031 232.980469 525.074219 L 236.179688 527.304688 C 245.800781 533.992188 254.878906 539.257812 265.804688 543.222656 C 270.992188 545.078125 279.320312 547.867188 284.378906 548.847656 C 286.113281 549.1875 287.792969 549.824219 289.5625 549.96875 C 290.03125 549.984375 291.1875 550.480469 292.851562 550.6875 L 299.128906 551.761719 L 311.042969 553.21875 C 322.292969 554.125 381.53125 556.660156 384.222656 554.332031 L 387.949219 551.707031 L 387.058594 549.433594 C 387.050781 549.433594 387.042969 549.433594 387.035156 549.433594 C 387.480469 549.332031 387.933594 549.285156 388.347656 549.332031 C 388.433594 549.667969 388.539062 550.058594 388.761719 550.351562 L 389 549.433594 C 389.996094 549.433594 393.796875 547.644531 394.78125 547.148438 C 397.101562 545.980469 399.441406 544.703125 401.574219 543.222656 C 403.007812 542.246094 404.410156 541.183594 405.933594 540.355469 C 409.539062 538.414062 418.683594 529.328125 421.789062 525.703125 L 429.878906 515.707031 L 432.339844 512.308594 C 432.835938 511.628906 433.433594 511 433.910156 510.269531 C 440.671875 500.074219 443.824219 495.097656 448.992188 483.335938 L 456.089844 483.246094 C 459.117188 483.308594 464.1875 482.800781 466.609375 483.144531 L 479.878906 483.246094 C 481.835938 483.308594 495.011719 483.988281 496.9375 484.3125 C 499.550781 484.953125 502.089844 485.125 504.121094 485.574219 L 516.957031 488.972656 C 518.839844 489.699219 520.710938 490.375 522.613281 491.011719 C 526.203125 492.460938 529.8125 493.871094 533.269531 495.664062 C 528.027344 496.914062 517.222656 502.679688 513.160156 505.515625 L 507.992188 508.960938 C 506.667969 509.980469 505.347656 511 504.03125 512.019531 C 497.039062 517.355469 490.726562 521.976562 482.824219 526.523438 C 480.378906 527.933594 471.585938 532.359375 468.265625 533.609375 L 465.628906 534.679688 C 460.4375 536.835938 456.234375 538.078125 450.976562 539.625 L 445.480469 541.128906 C 443.402344 541.367188 443.371094 541.589844 441.4375 542.054688 L 428 544.523438 C 423.085938 545.136719 417.535156 546.3125 412.574219 547.191406 C 405.910156 548.382812 400.023438 549.371094 393.277344 550.207031 C 392.832031 550.257812 387.703125 550.679688 388.085938 551.171875 C 388.453125 551.417969 389.058594 551.273438 389.335938 551.609375 C 388.609375 552.527344 388.378906 551.96875 389.207031 552.484375 C 388.492188 552.550781 386.101562 554.167969 385.550781 554.476562 C 388.875 556.5 394.566406 554.183594 398.167969 554.523438 C 399.648438 554.660156 399.097656 555.128906 400.40625 555.003906 L 407.144531 554.621094 C 409.570312 554.828125 416.261719 554.746094 418.777344 554.566406 C 419.542969 554.523438 420.308594 554.332031 421.0625 554.375 C 422.433594 554.421875 424.863281 554.023438 425.507812 554.183594 C 427.101562 554.589844 428.160156 554.160156 430.023438 553.941406 C 438.726562 552.921875 448.691406 551.035156 457.210938 548.75 C 461.511719 547.5 468.003906 545.667969 471.800781 543.996094 C 474.910156 542.617188 477.542969 541.78125 480.914062 540.164062 L 487.363281 537.105469 C 496.226562 532.402344 506.269531 525.542969 514.339844 519.832031 C 517.253906 517.769531 523.304688 513.867188 526.761719 511.972656 C 528.332031 511.167969 533.707031 508.574219 535.347656 508.183594 C 536.675781 507.894531 537.960938 507.457031 539.3125 507.121094 C 542.46875 506.375 549.117188 505.792969 552.414062 506.144531 C 554.605469 506.246094 556.808594 505.179688 558.125 503.238281 C 560.132812 500.226562 559.328125 496.203125 556.332031 494.164062 Z M 363.0625 206.035156 C 363.171875 205.304688 363.207031 204.53125 363.222656 203.75 C 363.238281 202.453125 363.761719 199.417969 363.789062 197.492188 L 364.152344 196.035156 C 364.113281 195.460938 363.914062 194.765625 364.257812 194.242188 C 364.273438 194.242188 364.273438 194.1875 364.265625 194.144531 C 364.113281 193.398438 364.679688 193.214844 364.488281 192.496094 C 364.328125 191.875 365.769531 189.597656 366.175781 188.179688 C 366.597656 186.691406 367.855469 186.0625 367.785156 185.363281 C 367.761719 185.121094 367.785156 184.875 367.824219 184.683594 C 368.460938 185.105469 368.015625 184.699219 368.714844 185.746094 C 368.980469 186.160156 368.445312 186.269531 368.8125 186.621094 C 369.28125 187.058594 370.167969 187.75 370.332031 188.371094 C 370.515625 189.035156 372.585938 193.820312 372.316406 194.289062 C 371.949219 194.933594 372.394531 195.207031 372.5625 195.84375 C 373.84375 200.730469 374.148438 205.671875 373.382812 210.6875 C 373.050781 212.8125 371.671875 216.851562 370.613281 218.792969 L 368.039062 222.722656 L 364.964844 216.953125 C 363.953125 214.359375 363.214844 209.960938 363.148438 207.246094 C 363.148438 206.855469 363.015625 206.472656 363.0625 206.035156 Z M 368.136719 182.351562 Z M 350.238281 211.515625 C 350.894531 217.449219 353.265625 224.335938 356.90625 229.179688 L 361.582031 234.707031 L 364.574219 237.183594 C 366.628906 238.933594 369.6875 238.933594 371.789062 237.136719 C 376.203125 233.167969 377.316406 231.386719 380.144531 225.976562 C 383.625 219.265625 384.757812 212.589844 384.300781 205.160156 C 384.246094 204.269531 384.046875 201.433594 383.730469 200.742188 C 383.554688 200.367188 383.96875 200.335938 383.53125 199.242188 L 382.882812 196.519531 C 381.347656 190.792969 379.398438 187.472656 374.554688 183.855469 C 374.210938 183.601562 368.605469 179.835938 368.511719 180.949219 C 368.484375 181.386719 368.890625 181.1875 368.382812 181.867188 L 368.207031 182.253906 C 368.199219 182.253906 368.191406 182.304688 368.175781 182.351562 C 368.167969 182.351562 368.167969 182.351562 368.160156 182.351562 C 368.152344 182.304688 368.152344 182.304688 368.144531 182.304688 C 368.015625 181.824219 368.0625 181.578125 368.136719 181.1875 L 367.53125 180.605469 C 366.351562 180.335938 366.859375 179.820312 364.734375 180.3125 C 363.453125 180.613281 360.578125 182.175781 359.527344 183.179688 L 356.808594 185.457031 C 354.046875 188.414062 351.761719 193.980469 351.164062 198.023438 C 351.148438 198.121094 351.132812 198.222656 351.09375 198.3125 C 350.144531 200.476562 349.792969 208.609375 350.238281 211.515625 Z M 350.238281 211.515625 "/>
</g>
</g>
</svg>
