<?xml version="1.0" encoding="UTF-8"?>
<svg xmlns="http://www.w3.org/2000/svg" xmlns:xlink="http://www.w3.org/1999/xlink" width="736px" height="736px" viewBox="0 0 736 736" version="1.1">
<defs>
<clipPath id="clip1">
  <path d="M 343 177 L 386.644531 177 L 386.644531 221 L 343 221 Z M 343 177 "/>
</clipPath>
</defs>
<g id="surface1">
<rect x="0" y="0" width="736" height="736" style="fill:rgb(100%,100%,100%);fill-opacity:1;stroke:none;"/>
<path style=" stroke:none;fill-rule:nonzero;fill:rgb(0%,0%,0%);fill-opacity:1;" d="M 184.628906 367.035156 C 184.628906 278.039062 248.308594 203.304688 336.054688 189.34375 C 336.683594 189.242188 337.265625 189.03125 337.808594 188.691406 C 338.34375 188.363281 338.804688 187.941406 339.179688 187.425781 C 339.550781 186.914062 339.808594 186.347656 339.964844 185.726562 C 340.109375 185.113281 340.132812 184.492188 340.03125 183.863281 C 339.933594 183.234375 339.71875 182.652344 339.378906 182.113281 C 339.050781 181.570312 338.628906 181.109375 338.117188 180.742188 C 337.601562 180.367188 337.035156 180.105469 336.421875 179.960938 C 335.800781 179.8125 335.179688 179.789062 334.550781 179.890625 C 330.800781 180.488281 327.074219 181.203125 323.371094 182.03125 C 319.660156 182.859375 315.980469 183.792969 312.332031 184.84375 C 308.683594 185.894531 305.070312 187.042969 301.492188 188.308594 C 297.910156 189.574219 294.371094 190.945312 290.875 192.425781 C 287.378906 193.90625 283.925781 195.484375 280.523438 197.164062 C 277.121094 198.851562 273.769531 200.636719 270.480469 202.523438 C 267.183594 204.410156 263.949219 206.394531 260.765625 208.472656 C 257.59375 210.550781 254.480469 212.726562 251.4375 214.996094 C 248.390625 217.257812 245.417969 219.621094 242.511719 222.066406 C 239.605469 224.511719 236.777344 227.039062 234.023438 229.65625 C 231.273438 232.269531 228.605469 234.96875 226.011719 237.742188 C 223.421875 240.519531 220.921875 243.371094 218.5 246.300781 C 216.085938 249.226562 213.753906 252.226562 211.515625 255.292969 C 209.277344 258.359375 207.128906 261.488281 205.082031 264.683594 C 203.027344 267.882812 201.074219 271.132812 199.226562 274.445312 C 197.371094 277.753906 195.613281 281.121094 193.960938 284.539062 C 192.3125 287.960938 190.761719 291.425781 189.3125 294.9375 C 187.871094 298.449219 186.53125 301.996094 185.296875 305.59375 C 184.070312 309.179688 182.941406 312.808594 181.929688 316.464844 C 180.917969 320.121094 180.011719 323.808594 179.222656 327.527344 C 178.433594 331.238281 177.75 334.972656 177.183594 338.730469 C 176.617188 342.476562 176.15625 346.25 175.820312 350.03125 C 175.476562 353.808594 175.253906 357.597656 175.136719 361.390625 C 175.023438 365.1875 175.023438 368.980469 175.136719 372.777344 C 175.253906 376.570312 175.480469 380.367188 175.820312 384.144531 C 176.164062 387.925781 176.617188 391.699219 177.183594 395.445312 C 177.75 399.203125 178.433594 402.9375 179.222656 406.648438 C 180.019531 410.367188 180.917969 414.046875 181.9375 417.710938 C 182.949219 421.367188 184.070312 424.992188 185.304688 428.582031 C 186.539062 432.175781 187.871094 435.726562 189.320312 439.238281 C 190.761719 442.75 192.3125 446.214844 193.964844 449.632812 C 195.621094 453.046875 197.371094 456.410156 199.226562 459.722656 C 199.539062 460.285156 199.945312 460.75 200.445312 461.148438 C 200.941406 461.539062 201.496094 461.816406 202.109375 461.992188 C 202.722656 462.160156 203.34375 462.207031 203.972656 462.140625 C 204.601562 462.0625 205.191406 461.871094 205.75 461.554688 C 206.300781 461.242188 206.777344 460.84375 207.167969 460.34375 C 207.558594 459.839844 207.84375 459.285156 208.011719 458.671875 C 208.179688 458.066406 208.234375 457.445312 208.15625 456.8125 C 208.082031 456.183594 207.890625 455.589844 207.574219 455.039062 C 200.046875 441.59375 194.34375 427.417969 190.449219 412.511719 C 186.5625 397.601562 184.621094 382.445312 184.628906 367.035156 Z M 184.628906 367.035156 "/>
<path style=" stroke:none;fill-rule:nonzero;fill:rgb(0%,0%,0%);fill-opacity:1;" d="M 507.800781 242.949219 C 500.496094 234.507812 492.507812 226.773438 483.828125 219.742188 C 475.15625 212.71875 465.933594 206.507812 456.160156 201.113281 C 446.382812 195.714844 436.21875 191.214844 425.644531 187.609375 C 415.082031 184.015625 404.277344 181.371094 393.238281 179.675781 C 392.617188 179.585938 391.996094 179.621094 391.382812 179.777344 C 390.769531 179.929688 390.210938 180.191406 389.703125 180.574219 C 389.191406 180.949219 388.777344 181.410156 388.453125 181.945312 C 388.125 182.488281 387.917969 183.074219 387.816406 183.699219 C 387.726562 184.320312 387.75 184.941406 387.902344 185.554688 C 388.054688 186.167969 388.316406 186.730469 388.691406 187.242188 C 389.058594 187.75 389.519531 188.171875 390.058594 188.5 C 390.601562 188.828125 391.183594 189.042969 391.804688 189.144531 C 478.851562 202.363281 544.503906 278.835938 544.503906 367.035156 C 544.503906 382.445312 542.5625 397.601562 538.667969 412.511719 C 534.78125 427.425781 529.078125 441.601562 521.546875 455.039062 C 521.226562 455.597656 521.027344 456.191406 520.941406 456.824219 C 520.867188 457.453125 520.902344 458.082031 521.082031 458.695312 C 521.25 459.316406 521.523438 459.878906 521.921875 460.382812 C 522.316406 460.882812 522.789062 461.289062 523.351562 461.601562 C 523.902344 461.917969 524.5 462.109375 525.136719 462.183594 C 525.773438 462.261719 526.394531 462.207031 527.015625 462.03125 C 527.628906 461.855469 528.179688 461.570312 528.679688 461.171875 C 529.183594 460.773438 529.582031 460.292969 529.890625 459.730469 C 532.257812 455.507812 534.457031 451.207031 536.492188 446.8125 C 538.523438 442.429688 540.386719 437.964844 542.078125 433.433594 C 543.773438 428.894531 545.292969 424.3125 546.632812 419.65625 C 547.976562 415.011719 549.140625 410.320312 550.121094 405.582031 C 551.101562 400.84375 551.898438 396.074219 552.519531 391.277344 C 553.132812 386.476562 553.570312 381.660156 553.816406 376.832031 C 554.070312 371.996094 554.132812 367.164062 554.007812 362.328125 C 553.894531 357.488281 553.585938 352.667969 553.097656 347.851562 C 552.605469 343.039062 551.929688 338.246094 551.074219 333.484375 C 550.214844 328.722656 549.179688 324 547.960938 319.316406 C 546.742188 314.640625 545.34375 310.007812 543.773438 305.433594 C 542.203125 300.855469 540.453125 296.347656 538.539062 291.910156 C 536.621094 287.460938 534.535156 283.097656 532.28125 278.820312 C 530.035156 274.535156 527.621094 270.351562 525.042969 266.246094 C 522.476562 262.152344 519.746094 258.160156 516.871094 254.265625 C 513.996094 250.378906 510.96875 246.605469 507.800781 242.949219 Z M 507.800781 242.949219 "/>
<path style=" stroke:none;fill-rule:nonzero;fill:rgb(0%,0%,0%);fill-opacity:1;" d="M 342.792969 231.871094 C 343.320312 231.511719 343.765625 231.066406 344.117188 230.527344 C 344.472656 229.992188 344.699219 229.410156 344.824219 228.78125 C 344.9375 228.152344 344.929688 227.523438 344.800781 226.902344 C 344.664062 226.273438 344.417969 225.699219 344.050781 225.171875 C 343.679688 224.648438 343.230469 224.210938 342.691406 223.867188 C 342.148438 223.523438 341.566406 223.292969 340.9375 223.183594 C 340.300781 223.078125 339.679688 223.09375 339.050781 223.230469 C 338.429688 223.375 337.855469 223.636719 337.332031 224.003906 C 335.832031 225.046875 334.390625 226.175781 333.007812 227.386719 C 331.636719 228.589844 330.332031 229.878906 329.105469 231.234375 C 327.878906 232.589844 326.730469 234.015625 325.664062 235.511719 C 324.597656 237 323.625 238.546875 322.734375 240.152344 C 321.855469 241.753906 321.058594 243.402344 320.359375 245.09375 C 319.660156 246.789062 319.0625 248.515625 318.566406 250.277344 C 318.066406 252.042969 317.675781 253.828125 317.378906 255.628906 C 317.085938 257.4375 316.894531 259.257812 316.808594 261.089844 C 316.726562 262.921875 316.75 264.746094 316.878906 266.578125 C 317 268.402344 317.230469 270.21875 317.570312 272.011719 C 317.898438 273.816406 318.335938 275.59375 318.871094 277.339844 C 319.410156 279.097656 320.050781 280.808594 320.78125 282.484375 C 321.515625 284.164062 322.351562 285.789062 323.273438 287.378906 C 324.191406 288.957031 325.203125 290.480469 326.300781 291.945312 C 327.398438 293.410156 328.578125 294.8125 329.835938 296.140625 C 331.101562 297.472656 332.425781 298.722656 333.828125 299.90625 C 334.320312 300.304688 334.863281 300.59375 335.460938 300.785156 C 336.066406 300.96875 336.683594 301.03125 337.308594 300.96875 C 337.9375 300.917969 338.53125 300.742188 339.089844 300.449219 C 339.648438 300.15625 340.132812 299.765625 340.539062 299.285156 C 340.945312 298.800781 341.242188 298.265625 341.433594 297.660156 C 341.625 297.058594 341.695312 296.445312 341.640625 295.816406 C 341.589844 295.191406 341.417969 294.589844 341.136719 294.03125 C 340.851562 293.472656 340.46875 292.988281 339.984375 292.574219 C 338.867188 291.632812 337.800781 290.628906 336.796875 289.5625 C 335.792969 288.503906 334.847656 287.386719 333.96875 286.210938 C 333.085938 285.039062 332.28125 283.820312 331.546875 282.554688 C 330.808594 281.289062 330.140625 279.988281 329.550781 278.644531 C 328.96875 277.304688 328.457031 275.929688 328.027344 274.527344 C 327.597656 273.132812 327.242188 271.707031 326.976562 270.273438 C 326.714844 268.832031 326.53125 267.375 326.421875 265.917969 C 326.324219 264.453125 326.308594 262.988281 326.378906 261.53125 C 326.445312 260.070312 326.601562 258.613281 326.828125 257.164062 C 327.066406 255.722656 327.382812 254.289062 327.78125 252.886719 C 328.179688 251.472656 328.664062 250.085938 329.214844 248.738281 C 329.773438 247.378906 330.410156 246.0625 331.117188 244.78125 C 331.828125 243.5 332.609375 242.257812 333.460938 241.070312 C 334.3125 239.882812 335.226562 238.738281 336.214844 237.652344 C 337.195312 236.5625 338.238281 235.542969 339.335938 234.570312 C 340.4375 233.601562 341.589844 232.707031 342.792969 231.871094 Z M 342.792969 231.871094 "/>
<path style=" stroke:none;fill-rule:nonzero;fill:rgb(0%,0%,0%);fill-opacity:1;" d="M 388.570312 293.035156 C 388.078125 293.433594 387.679688 293.917969 387.375 294.46875 C 387.066406 295.027344 386.882812 295.625 386.820312 296.253906 C 386.753906 296.882812 386.804688 297.503906 386.992188 298.117188 C 387.167969 298.722656 387.457031 299.277344 387.855469 299.765625 C 388.253906 300.265625 388.730469 300.664062 389.289062 300.960938 C 389.851562 301.269531 390.441406 301.453125 391.078125 301.523438 C 391.707031 301.582031 392.328125 301.53125 392.933594 301.355469 C 393.546875 301.167969 394.097656 300.878906 394.589844 300.480469 C 396.042969 299.308594 397.433594 298.042969 398.742188 296.699219 C 400.054688 295.359375 401.28125 293.949219 402.421875 292.460938 C 403.574219 290.972656 404.625 289.425781 405.589844 287.8125 C 406.546875 286.203125 407.414062 284.546875 408.179688 282.832031 C 408.949219 281.121094 409.605469 279.375 410.175781 277.578125 C 410.734375 275.792969 411.1875 273.976562 411.53125 272.128906 C 411.875 270.289062 412.113281 268.433594 412.246094 266.5625 C 412.375 264.691406 412.390625 262.8125 412.296875 260.941406 C 412.207031 259.070312 412.007812 257.210938 411.691406 255.363281 C 411.386719 253.507812 410.964844 251.679688 410.433594 249.886719 C 409.914062 248.085938 409.285156 246.324219 408.550781 244.597656 C 407.8125 242.863281 406.984375 241.191406 406.050781 239.558594 C 405.121094 237.933594 404.09375 236.363281 402.984375 234.859375 C 401.863281 233.351562 400.667969 231.917969 399.378906 230.542969 C 398.097656 229.179688 396.734375 227.890625 395.300781 226.6875 C 393.859375 225.484375 392.363281 224.363281 390.792969 223.335938 C 390.265625 222.984375 389.6875 222.753906 389.058594 222.632812 C 388.4375 222.507812 387.816406 222.515625 387.199219 222.648438 C 386.578125 222.777344 386 223.015625 385.472656 223.375 C 384.949219 223.730469 384.515625 224.171875 384.160156 224.703125 C 383.816406 225.230469 383.578125 225.8125 383.464844 226.433594 C 383.339844 227.054688 383.347656 227.675781 383.472656 228.304688 C 383.601562 228.925781 383.847656 229.492188 384.199219 230.023438 C 384.558594 230.542969 385.003906 230.980469 385.535156 231.335938 C 386.785156 232.15625 387.988281 233.050781 389.136719 234.015625 C 390.285156 234.984375 391.375 236.011719 392.402344 237.097656 C 393.429688 238.195312 394.386719 239.34375 395.277344 240.550781 C 396.175781 241.753906 396.996094 243.011719 397.738281 244.3125 C 398.484375 245.617188 399.148438 246.957031 399.730469 248.339844 C 400.324219 249.71875 400.828125 251.128906 401.25 252.570312 C 401.664062 254.003906 402 255.46875 402.253906 256.949219 C 402.5 258.429688 402.660156 259.914062 402.738281 261.410156 C 402.808594 262.914062 402.792969 264.40625 402.691406 265.902344 C 402.59375 267.398438 402.398438 268.886719 402.125 270.363281 C 401.847656 271.835938 401.480469 273.285156 401.035156 274.71875 C 400.582031 276.152344 400.054688 277.546875 399.441406 278.921875 C 398.828125 280.292969 398.136719 281.621094 397.363281 282.90625 C 396.597656 284.195312 395.753906 285.429688 394.839844 286.617188 C 393.921875 287.808594 392.941406 288.941406 391.890625 290.015625 C 390.847656 291.089844 389.734375 292.09375 388.570312 293.035156 Z M 388.570312 293.035156 "/>
<path style=" stroke:none;fill-rule:nonzero;fill:rgb(0%,0%,0%);fill-opacity:1;" d="M 464.84375 399.910156 L 431.464844 343.097656 C 429.863281 340.308594 428.007812 337.710938 425.898438 335.277344 C 423.789062 332.855469 421.46875 330.664062 418.929688 328.691406 C 416.382812 326.722656 413.6875 325.011719 410.8125 323.570312 C 407.9375 322.128906 404.953125 320.980469 401.855469 320.121094 C 401.273438 319.960938 400.683594 319.816406 400.085938 319.667969 C 399.464844 319.523438 398.84375 319.507812 398.214844 319.609375 C 397.585938 319.707031 397.003906 319.929688 396.457031 320.265625 C 395.921875 320.597656 395.46875 321.027344 395.09375 321.539062 C 394.726562 322.0625 394.464844 322.628906 394.328125 323.242188 C 394.183594 323.863281 394.160156 324.484375 394.265625 325.113281 C 394.367188 325.742188 394.589844 326.324219 394.925781 326.859375 C 395.253906 327.40625 395.683594 327.855469 396.199219 328.226562 C 396.71875 328.59375 397.285156 328.855469 397.90625 329 C 398.390625 329.105469 398.875 329.230469 399.347656 329.359375 C 401.847656 330.058594 404.253906 330.992188 406.570312 332.160156 C 408.886719 333.324219 411.0625 334.710938 413.109375 336.296875 C 415.15625 337.894531 417.027344 339.671875 418.730469 341.632812 C 420.433594 343.589844 421.925781 345.699219 423.214844 347.945312 L 456.757812 405.046875 C 456.871094 405.238281 456.996094 405.421875 457.132812 405.589844 L 504.957031 465.886719 C 503.46875 466.785156 501.914062 467.550781 500.296875 468.171875 C 498.671875 468.792969 497 469.269531 495.296875 469.597656 C 493.585938 469.921875 491.863281 470.097656 490.121094 470.121094 C 488.382812 470.136719 486.65625 470.003906 484.941406 469.714844 C 483.222656 469.429688 481.550781 468.992188 479.910156 468.402344 C 478.277344 467.820312 476.699219 467.089844 475.195312 466.226562 C 473.683594 465.359375 472.265625 464.363281 470.933594 463.242188 C 469.605469 462.125 468.378906 460.898438 467.269531 459.5625 L 437.277344 423.523438 L 417.296875 397.300781 C 416.976562 396.886719 416.597656 396.535156 416.167969 396.238281 C 415.742188 395.945312 415.273438 395.730469 414.765625 395.59375 C 414.261719 395.453125 413.753906 395.394531 413.234375 395.421875 C 412.710938 395.453125 412.207031 395.5625 411.722656 395.753906 C 411.230469 395.945312 410.796875 396.214844 410.398438 396.550781 C 409.996094 396.886719 409.660156 397.277344 409.390625 397.722656 C 409.125 398.175781 408.933594 398.652344 408.816406 399.15625 C 408.703125 399.671875 408.671875 400.183594 408.726562 400.707031 L 414.742188 457.882812 C 414.742188 457.914062 414.75 457.9375 414.757812 457.96875 C 414.765625 458.058594 414.78125 458.152344 414.804688 458.246094 C 414.8125 458.3125 414.828125 458.382812 414.84375 458.453125 C 414.859375 458.519531 414.882812 458.605469 414.90625 458.679688 C 414.925781 458.757812 414.941406 458.835938 414.972656 458.910156 C 414.996094 458.988281 415.019531 459.042969 415.042969 459.109375 C 415.074219 459.1875 415.105469 459.265625 415.140625 459.347656 C 415.171875 459.410156 415.203125 459.472656 415.234375 459.539062 C 415.265625 459.601562 415.3125 459.6875 415.347656 459.753906 C 415.386719 459.824219 415.433594 459.894531 415.480469 459.960938 C 415.527344 460.03125 415.546875 460.078125 415.585938 460.136719 C 415.648438 460.214844 415.710938 460.292969 415.761719 460.367188 C 415.800781 460.40625 415.832031 460.453125 415.863281 460.492188 C 415.933594 460.574219 416.007812 460.652344 416.085938 460.726562 C 416.117188 460.765625 416.148438 460.796875 416.175781 460.828125 C 416.261719 460.90625 416.339844 460.972656 416.421875 461.042969 C 416.460938 461.074219 416.5 461.105469 416.539062 461.132812 C 416.605469 461.195312 416.691406 461.25 416.769531 461.3125 C 416.820312 461.339844 416.875 461.378906 416.929688 461.417969 C 416.988281 461.464844 417.066406 461.503906 417.136719 461.539062 C 417.203125 461.585938 417.28125 461.625 417.359375 461.664062 C 417.382812 461.679688 417.402344 461.695312 417.433594 461.710938 L 483.789062 493.519531 C 485.300781 494.246094 486.734375 495.097656 488.097656 496.078125 C 489.457031 497.0625 490.710938 498.15625 491.878906 499.367188 C 493.042969 500.570312 494.085938 501.875 495.019531 503.269531 C 495.949219 504.664062 496.746094 506.128906 497.421875 507.671875 C 498.089844 509.210938 498.609375 510.792969 498.992188 512.425781 C 499.375 514.058594 499.613281 515.714844 499.707031 517.386719 C 499.789062 519.0625 499.730469 520.726562 499.523438 522.390625 C 499.308594 524.054688 498.953125 525.6875 498.449219 527.289062 C 497.949219 528.894531 497.304688 530.433594 496.53125 531.921875 C 495.75 533.402344 494.84375 534.804688 493.816406 536.128906 C 492.78125 537.457031 491.648438 538.675781 490.398438 539.792969 C 489.148438 540.914062 487.808594 541.910156 486.382812 542.792969 C 484.953125 543.675781 483.460938 544.417969 481.894531 545.03125 C 480.339844 545.644531 478.738281 546.113281 477.089844 546.441406 C 475.441406 546.761719 473.785156 546.941406 472.105469 546.96875 C 470.425781 547 468.761719 546.878906 467.105469 546.609375 L 397.386719 535.226562 C 397.578125 535.035156 397.769531 534.851562 397.953125 534.648438 C 399.363281 533.117188 400.546875 531.429688 401.496094 529.582031 C 402.4375 527.726562 403.121094 525.789062 403.542969 523.75 C 403.957031 521.714844 404.09375 519.660156 403.949219 517.585938 C 403.804688 515.515625 403.382812 513.496094 402.683594 511.535156 C 401.988281 509.582031 401.042969 507.746094 399.847656 506.054688 C 398.652344 504.351562 397.25 502.839844 395.636719 501.523438 C 394.027344 500.210938 392.273438 499.128906 390.371094 498.296875 C 388.46875 497.460938 386.484375 496.890625 384.429688 496.601562 L 365.238281 493.847656 C 364.773438 493.785156 364.304688 493.785156 363.835938 493.855469 L 266.101562 508.835938 C 265.472656 508.9375 264.898438 509.160156 264.363281 509.488281 C 263.824219 509.816406 263.367188 510.238281 262.996094 510.746094 C 262.621094 511.257812 262.359375 511.820312 262.214844 512.433594 C 262.070312 513.046875 262.039062 513.667969 262.136719 514.289062 C 262.230469 514.917969 262.445312 515.5 262.765625 516.035156 C 263.097656 516.578125 263.511719 517.03125 264.015625 517.40625 C 264.523438 517.785156 265.082031 518.050781 265.695312 518.207031 C 266.308594 518.359375 266.921875 518.390625 267.550781 518.304688 L 364.589844 503.425781 L 383.074219 506.078125 C 384.375 506.261719 385.632812 506.628906 386.820312 507.1875 C 388.019531 507.746094 389.105469 508.46875 390.085938 509.359375 C 391.0625 510.238281 391.890625 511.25 392.5625 512.386719 C 393.238281 513.519531 393.730469 514.726562 394.042969 516.003906 C 394.175781 516.535156 394.273438 517.070312 394.335938 517.613281 C 394.402344 518.152344 394.433594 518.695312 394.425781 519.242188 C 394.425781 519.785156 394.386719 520.328125 394.320312 520.875 C 394.25 521.410156 394.152344 521.945312 394.011719 522.476562 C 393.875 523.003906 393.707031 523.519531 393.507812 524.023438 C 393.308594 524.53125 393.078125 525.027344 392.816406 525.503906 C 392.554688 525.988281 392.273438 526.445312 391.949219 526.882812 C 391.636719 527.328125 391.292969 527.75 390.921875 528.148438 C 390.546875 528.554688 390.15625 528.929688 389.742188 529.285156 C 389.328125 529.636719 388.890625 529.957031 388.433594 530.257812 C 387.980469 530.554688 387.503906 530.824219 387.011719 531.0625 C 386.523438 531.300781 386.023438 531.507812 385.511719 531.691406 C 384.988281 531.867188 384.46875 532.011719 383.929688 532.121094 C 383.402344 532.234375 382.867188 532.320312 382.320312 532.367188 C 381.777344 532.410156 381.234375 532.417969 380.6875 532.402344 C 380.144531 532.382812 379.601562 532.328125 379.0625 532.234375 L 373.734375 531.367188 L 373.726562 531.367188 L 365.332031 529.996094 L 365.300781 529.996094 C 365.179688 529.980469 365.0625 529.964844 364.941406 529.957031 C 364.902344 529.957031 364.863281 529.949219 364.816406 529.941406 C 364.710938 529.941406 364.605469 529.941406 364.496094 529.941406 C 364.441406 529.941406 364.390625 529.941406 364.328125 529.941406 C 364.242188 529.949219 364.152344 529.957031 364.058594 529.972656 C 363.992188 529.980469 363.921875 529.980469 363.84375 529.996094 C 363.828125 529.996094 363.804688 529.996094 363.789062 530.003906 L 262.015625 546.601562 C 260.359375 546.871094 258.6875 546.992188 257.015625 546.964844 C 255.339844 546.941406 253.675781 546.757812 252.035156 546.433594 C 250.386719 546.113281 248.785156 545.636719 247.21875 545.03125 C 245.664062 544.417969 244.167969 543.667969 242.742188 542.792969 C 241.308594 541.910156 239.972656 540.90625 238.726562 539.785156 C 237.476562 538.667969 236.332031 537.449219 235.304688 536.121094 C 234.277344 534.804688 233.375 533.402344 232.589844 531.914062 C 231.816406 530.425781 231.171875 528.886719 230.667969 527.28125 C 230.167969 525.6875 229.808594 524.054688 229.601562 522.390625 C 229.386719 520.726562 229.324219 519.054688 229.417969 517.386719 C 229.5 515.707031 229.738281 514.058594 230.121094 512.425781 C 230.511719 510.792969 231.035156 509.203125 231.703125 507.664062 C 232.367188 506.128906 233.175781 504.660156 234.101562 503.261719 C 235.03125 501.867188 236.078125 500.570312 237.246094 499.359375 C 238.402344 498.15625 239.667969 497.0625 241.023438 496.078125 C 242.382812 495.089844 243.824219 494.238281 245.332031 493.519531 L 311.6875 461.703125 C 311.695312 461.695312 311.710938 461.6875 311.726562 461.679688 C 311.835938 461.625 311.941406 461.570312 312.046875 461.503906 C 312.085938 461.480469 312.125 461.464844 312.15625 461.441406 C 312.246094 461.378906 312.339844 461.320312 312.425781 461.257812 C 312.46875 461.226562 312.515625 461.195312 312.5625 461.15625 C 312.632812 461.105469 312.699219 461.042969 312.769531 460.980469 C 312.824219 460.933594 312.867188 460.898438 312.921875 460.851562 C 312.984375 460.789062 313.039062 460.726562 313.097656 460.667969 C 313.152344 460.605469 313.191406 460.566406 313.238281 460.511719 C 313.296875 460.445312 313.351562 460.375 313.398438 460.308594 C 313.4375 460.253906 313.480469 460.207031 313.519531 460.144531 C 313.574219 460.078125 313.621094 459.992188 313.675781 459.914062 C 313.703125 459.863281 313.734375 459.816406 313.765625 459.761719 C 313.8125 459.6875 313.859375 459.59375 313.894531 459.507812 C 313.925781 459.457031 313.949219 459.402344 313.972656 459.355469 C 314.011719 459.265625 314.050781 459.179688 314.082031 459.09375 C 314.101562 459.035156 314.125 458.972656 314.148438 458.910156 C 314.171875 458.835938 314.195312 458.757812 314.21875 458.671875 C 314.242188 458.597656 314.257812 458.527344 314.28125 458.453125 C 314.296875 458.375 314.300781 458.3125 314.316406 458.238281 C 314.332031 458.152344 314.347656 458.058594 314.363281 457.96875 C 314.363281 457.9375 314.371094 457.914062 314.371094 457.882812 L 320.390625 400.707031 C 320.453125 400.183594 320.421875 399.671875 320.304688 399.164062 C 320.191406 398.652344 320 398.175781 319.730469 397.722656 C 319.460938 397.277344 319.125 396.886719 318.726562 396.550781 C 318.328125 396.214844 317.882812 395.945312 317.398438 395.753906 C 316.917969 395.5625 316.410156 395.453125 315.890625 395.421875 C 315.367188 395.394531 314.855469 395.453125 314.355469 395.59375 C 313.851562 395.730469 313.382812 395.945312 312.953125 396.238281 C 312.515625 396.535156 312.140625 396.886719 311.828125 397.300781 L 291.839844 423.523438 L 261.855469 459.570312 C 260.742188 460.90625 259.515625 462.132812 258.191406 463.25 C 256.855469 464.371094 255.4375 465.367188 253.925781 466.234375 C 252.425781 467.097656 250.84375 467.820312 249.210938 468.410156 C 247.570312 468.992188 245.902344 469.429688 244.183594 469.722656 C 242.464844 470.003906 240.742188 470.144531 239 470.121094 C 237.261719 470.105469 235.535156 469.929688 233.824219 469.605469 C 232.125 469.277344 230.453125 468.800781 228.828125 468.179688 C 227.210938 467.550781 225.652344 466.792969 224.164062 465.886719 L 271.992188 405.597656 C 272.128906 405.421875 272.25 405.238281 272.367188 405.046875 L 305.898438 347.96875 C 307.234375 345.667969 308.773438 343.519531 310.53125 341.527344 C 312.277344 339.535156 314.210938 337.730469 316.328125 336.121094 C 318.433594 334.511719 320.679688 333.125 323.066406 331.953125 C 325.441406 330.785156 327.917969 329.859375 330.488281 329.175781 C 330.917969 329.070312 331.351562 328.96875 331.789062 328.871094 C 332.410156 328.730469 332.980469 328.484375 333.5 328.125 C 334.019531 327.757812 334.449219 327.3125 334.796875 326.777344 C 335.140625 326.238281 335.363281 325.664062 335.476562 325.035156 C 335.585938 324.414062 335.578125 323.785156 335.441406 323.164062 C 335.300781 322.550781 335.054688 321.976562 334.695312 321.457031 C 334.328125 320.933594 333.882812 320.503906 333.347656 320.160156 C 332.808594 319.824219 332.234375 319.59375 331.605469 319.484375 C 330.984375 319.371094 330.355469 319.386719 329.742188 319.515625 C 329.199219 319.636719 328.664062 319.761719 328.132812 319.898438 C 324.960938 320.734375 321.894531 321.878906 318.933594 323.320312 C 315.980469 324.761719 313.199219 326.476562 310.578125 328.46875 C 307.960938 330.457031 305.570312 332.6875 303.394531 335.15625 C 301.214844 337.617188 299.300781 340.269531 297.652344 343.113281 L 264.277344 399.910156 L 213.554688 463.847656 C 213.171875 464.339844 212.886719 464.875 212.710938 465.472656 C 212.542969 466.070312 212.480469 466.675781 212.542969 467.296875 C 212.605469 467.910156 212.78125 468.496094 213.070312 469.046875 C 213.355469 469.597656 213.738281 470.074219 214.214844 470.472656 C 217.703125 473.453125 221.605469 475.738281 225.914062 477.328125 C 230.230469 478.914062 234.675781 479.703125 239.269531 479.695312 C 240.410156 479.695312 241.5625 479.648438 242.710938 479.550781 C 245.273438 479.335938 247.777344 478.867188 250.246094 478.148438 C 252.714844 477.433594 255.085938 476.476562 257.363281 475.289062 C 259.640625 474.097656 261.769531 472.695312 263.765625 471.078125 C 265.765625 469.460938 267.574219 467.667969 269.214844 465.6875 L 299.269531 429.5625 C 299.3125 429.507812 299.351562 429.457031 299.390625 429.402344 L 309.089844 416.691406 L 305.132812 454.21875 L 241.191406 484.878906 C 239.167969 485.851562 237.238281 486.996094 235.421875 488.3125 C 233.59375 489.625 231.902344 491.097656 230.34375 492.714844 C 228.78125 494.332031 227.378906 496.078125 226.128906 497.949219 C 224.886719 499.820312 223.8125 501.785156 222.914062 503.84375 C 222.019531 505.90625 221.3125 508.039062 220.800781 510.222656 C 220.285156 512.417969 219.964844 514.632812 219.847656 516.878906 C 219.726562 519.117188 219.8125 521.355469 220.09375 523.585938 C 220.378906 525.816406 220.855469 528.011719 221.527344 530.148438 C 222.203125 532.296875 223.0625 534.367188 224.105469 536.359375 C 225.148438 538.351562 226.367188 540.230469 227.746094 542.011719 C 229.125 543.78125 230.652344 545.421875 232.332031 546.917969 C 234.003906 548.417969 235.796875 549.761719 237.710938 550.941406 C 239.628906 552.121094 241.628906 553.121094 243.722656 553.941406 C 245.816406 554.761719 247.964844 555.386719 250.171875 555.824219 C 252.378906 556.261719 254.601562 556.5 256.855469 556.53125 C 259.101562 556.570312 261.332031 556.410156 263.558594 556.046875 L 364.566406 539.566406 L 465.566406 556.046875 C 467.789062 556.414062 470.019531 556.578125 472.265625 556.539062 C 474.511719 556.5 476.742188 556.261719 478.953125 555.824219 C 481.152344 555.386719 483.308594 554.761719 485.398438 553.941406 C 487.492188 553.121094 489.492188 552.113281 491.402344 550.941406 C 493.320312 549.761719 495.113281 548.417969 496.785156 546.917969 C 498.464844 545.421875 499.988281 543.78125 501.371094 542.011719 C 502.75 540.230469 503.960938 538.351562 505.011719 536.359375 C 506.054688 534.367188 506.914062 532.296875 507.585938 530.15625 C 508.261719 528.011719 508.738281 525.824219 509.019531 523.59375 C 509.304688 521.363281 509.382812 519.125 509.265625 516.878906 C 509.144531 514.632812 508.828125 512.417969 508.316406 510.230469 C 507.800781 508.039062 507.097656 505.914062 506.199219 503.851562 C 505.300781 501.789062 504.238281 499.828125 502.988281 497.957031 C 501.738281 496.085938 500.335938 494.339844 498.777344 492.722656 C 497.214844 491.105469 495.527344 489.632812 493.703125 488.3125 C 491.878906 487.003906 489.953125 485.851562 487.929688 484.886719 L 423.988281 454.226562 L 420.035156 416.691406 L 429.722656 429.410156 C 429.769531 429.464844 429.808594 429.515625 429.855469 429.570312 L 459.90625 465.6875 C 461.539062 467.667969 463.359375 469.46875 465.359375 471.085938 C 467.351562 472.703125 469.484375 474.105469 471.761719 475.296875 C 474.039062 476.484375 476.40625 477.433594 478.875 478.15625 C 481.335938 478.867188 483.851562 479.335938 486.410156 479.550781 C 487.5625 479.648438 488.710938 479.703125 489.855469 479.703125 C 494.445312 479.703125 498.894531 478.914062 503.210938 477.328125 C 507.519531 475.746094 511.414062 473.460938 514.910156 470.480469 C 515.382812 470.082031 515.765625 469.605469 516.050781 469.054688 C 516.34375 468.503906 516.519531 467.917969 516.578125 467.296875 C 516.640625 466.683594 516.578125 466.070312 516.402344 465.480469 C 516.234375 464.882812 515.953125 464.339844 515.566406 463.855469 Z M 464.84375 399.910156 "/>
<path style=" stroke:none;fill-rule:nonzero;fill:rgb(0%,0%,0%);fill-opacity:1;" d="M 461.546875 518.296875 C 461.800781 518.335938 462.046875 518.351562 462.300781 518.351562 C 462.90625 518.351562 463.488281 518.242188 464.046875 518.019531 C 464.609375 517.808594 465.113281 517.492188 465.550781 517.078125 C 465.996094 516.671875 466.347656 516.195312 466.609375 515.652344 C 466.878906 515.109375 467.03125 514.539062 467.078125 513.933594 C 467.121094 513.335938 467.0625 512.746094 466.882812 512.171875 C 466.707031 511.597656 466.433594 511.066406 466.058594 510.601562 C 465.679688 510.125 465.238281 509.734375 464.714844 509.433594 C 464.195312 509.128906 463.640625 508.929688 463.042969 508.835938 L 415.632812 501.347656 C 415.003906 501.246094 414.382812 501.269531 413.761719 501.414062 C 413.148438 501.570312 412.582031 501.828125 412.066406 502.203125 C 411.554688 502.574219 411.132812 503.03125 410.804688 503.578125 C 410.464844 504.113281 410.25 504.695312 410.152344 505.324219 C 410.050781 505.953125 410.082031 506.574219 410.226562 507.195312 C 410.375 507.808594 410.632812 508.375 411.011719 508.890625 C 411.386719 509.402344 411.839844 509.824219 412.382812 510.15625 C 412.925781 510.484375 413.507812 510.699219 414.136719 510.800781 Z M 461.546875 518.296875 "/>
<path style=" stroke:none;fill-rule:nonzero;fill:rgb(0%,0%,0%);fill-opacity:1;" d="M 385.535156 235.390625 C 384.328125 232.484375 381.699219 231.25 379.960938 230.429688 C 379.585938 230.253906 379.046875 230 378.792969 229.847656 C 378.632812 229.585938 378.378906 229.050781 378.210938 228.679688 C 377.390625 226.941406 376.148438 224.3125 373.25 223.109375 C 370.414062 221.933594 367.722656 222.886719 365.9375 223.523438 C 365.484375 223.691406 365.023438 223.835938 364.566406 223.957031 C 364.097656 223.835938 363.636719 223.691406 363.183594 223.523438 C 361.40625 222.886719 358.707031 221.933594 355.871094 223.109375 C 352.972656 224.3125 351.730469 226.933594 350.910156 228.679688 C 350.742188 229.050781 350.488281 229.585938 350.328125 229.847656 C 350.074219 230 349.539062 230.253906 349.171875 230.429688 C 347.421875 231.25 344.792969 232.492188 343.597656 235.390625 C 342.417969 238.21875 343.375 240.917969 344.003906 242.703125 C 344.179688 243.148438 344.324219 243.609375 344.441406 244.074219 C 344.324219 244.542969 344.179688 245.003906 344.003906 245.449219 C 343.375 247.234375 342.417969 249.933594 343.597656 252.761719 C 344.792969 255.667969 347.421875 256.902344 349.171875 257.722656 C 349.539062 257.898438 350.074219 258.152344 350.328125 258.304688 C 350.488281 258.566406 350.742188 259.101562 350.910156 259.46875 C 351.730469 261.210938 352.972656 263.839844 355.871094 265.042969 C 358.707031 266.21875 361.40625 265.265625 363.183594 264.628906 C 363.636719 264.460938 364.097656 264.316406 364.566406 264.191406 C 365.023438 264.316406 365.484375 264.460938 365.9375 264.628906 C 367.371094 265.214844 368.859375 265.535156 370.40625 265.605469 C 371.386719 265.605469 372.339844 265.421875 373.242188 265.042969 C 376.148438 263.839844 377.382812 261.210938 378.203125 259.46875 C 378.378906 259.101562 378.632812 258.558594 378.792969 258.304688 C 379.046875 258.144531 379.585938 257.898438 379.953125 257.722656 C 381.691406 256.902344 384.324219 255.660156 385.527344 252.761719 C 386.699219 249.925781 385.75 247.234375 385.113281 245.449219 C 384.941406 244.996094 384.796875 244.535156 384.675781 244.074219 C 384.796875 243.609375 384.941406 243.148438 385.113281 242.695312 C 385.75 240.917969 386.707031 238.226562 385.535156 235.390625 Z M 376.097656 248.652344 C 376.117188 248.730469 376.15625 248.820312 376.1875 248.914062 L 375.882812 249.058594 C 374.410156 249.597656 373.121094 250.425781 372.007812 251.527344 C 370.90625 252.632812 370.085938 253.921875 369.546875 255.390625 C 369.503906 255.484375 369.449219 255.589844 369.402344 255.699219 L 369.132812 255.605469 C 367.679688 254.949219 366.160156 254.609375 364.558594 254.609375 C 362.964844 254.609375 361.4375 254.949219 359.988281 255.605469 L 359.71875 255.699219 C 359.667969 255.589844 359.621094 255.484375 359.574219 255.390625 C 359.039062 253.921875 358.21875 252.632812 357.105469 251.527344 C 356 250.425781 354.714844 249.597656 353.242188 249.058594 L 352.933594 248.914062 L 353.027344 248.644531 C 353.6875 247.195312 354.023438 245.671875 354.023438 244.074219 C 354.023438 242.480469 353.6875 240.957031 353.027344 239.5 L 352.933594 239.238281 L 353.242188 239.09375 C 354.714844 238.546875 356 237.726562 357.105469 236.625 C 358.21875 235.519531 359.039062 234.230469 359.574219 232.761719 C 359.621094 232.660156 359.667969 232.5625 359.71875 232.445312 L 359.988281 232.546875 C 361.4375 233.203125 362.964844 233.535156 364.558594 233.535156 C 366.160156 233.535156 367.679688 233.203125 369.132812 232.546875 L 369.402344 232.445312 C 369.449219 232.5625 369.503906 232.660156 369.546875 232.761719 C 370.085938 234.222656 370.90625 235.511719 372.007812 236.625 C 373.121094 237.726562 374.410156 238.546875 375.875 239.09375 L 376.1875 239.238281 C 376.15625 239.332031 376.117188 239.421875 376.097656 239.5 C 375.429688 240.957031 375.097656 242.480469 375.097656 244.074219 C 375.097656 245.671875 375.429688 247.195312 376.097656 248.644531 Z M 376.097656 248.652344 "/>
<g clip-path="url(#clip1)" clip-rule="nonzero">
<path style=" stroke:none;fill-rule:nonzero;fill:rgb(0%,0%,0%);fill-opacity:1;" d="M 343.589844 207.734375 C 344.792969 210.632812 347.421875 211.875 349.164062 212.695312 C 349.539062 212.871094 350.074219 213.125 350.328125 213.277344 C 350.488281 213.53125 350.742188 214.070312 350.910156 214.445312 C 351.730469 216.183594 352.972656 218.8125 355.871094 220.019531 C 356.785156 220.394531 357.726562 220.578125 358.714844 220.578125 C 360.265625 220.507812 361.75 220.1875 363.183594 219.605469 C 363.628906 219.433594 364.089844 219.289062 364.558594 219.167969 C 365.023438 219.289062 365.484375 219.433594 365.9375 219.605469 C 367.714844 220.242188 370.414062 221.191406 373.242188 220.019531 C 376.148438 218.8125 377.382812 216.191406 378.203125 214.445312 C 378.378906 214.078125 378.632812 213.539062 378.785156 213.285156 C 379.046875 213.125 379.585938 212.871094 379.953125 212.695312 C 381.691406 211.875 384.324219 210.640625 385.527344 207.742188 C 386.699219 204.90625 385.75 202.207031 385.113281 200.429688 C 384.941406 199.976562 384.796875 199.515625 384.675781 199.050781 C 384.796875 198.582031 384.941406 198.121094 385.113281 197.675781 C 385.75 195.890625 386.699219 193.191406 385.527344 190.363281 C 384.324219 187.457031 381.699219 186.222656 379.953125 185.402344 C 379.585938 185.226562 379.046875 184.972656 378.785156 184.820312 C 378.632812 184.558594 378.378906 184.023438 378.203125 183.65625 C 377.382812 181.914062 376.148438 179.285156 373.242188 178.082031 C 370.414062 176.910156 367.714844 177.859375 365.9375 178.496094 C 365.484375 178.664062 365.023438 178.808594 364.558594 178.933594 C 364.089844 178.808594 363.628906 178.664062 363.183594 178.496094 C 361.398438 177.867188 358.699219 176.910156 355.871094 178.082031 C 352.964844 179.285156 351.730469 181.914062 350.910156 183.65625 C 350.734375 184.023438 350.480469 184.558594 350.328125 184.820312 C 350.066406 184.972656 349.53125 185.226562 349.164062 185.402344 C 347.421875 186.222656 344.792969 187.464844 343.589844 190.363281 C 342.417969 193.191406 343.375 195.890625 344.003906 197.675781 C 344.171875 198.121094 344.316406 198.582031 344.441406 199.050781 C 344.316406 199.515625 344.171875 199.976562 344.003906 200.421875 C 343.375 202.207031 342.417969 204.90625 343.589844 207.734375 Z M 353.027344 194.472656 L 352.933594 194.210938 L 353.25 194.066406 C 354.714844 193.523438 356 192.703125 357.113281 191.597656 C 358.21875 190.484375 359.039062 189.199219 359.574219 187.734375 C 359.621094 187.632812 359.675781 187.535156 359.71875 187.417969 L 359.988281 187.519531 C 361.445312 188.179688 362.964844 188.507812 364.566406 188.507812 C 366.160156 188.507812 367.6875 188.179688 369.132812 187.519531 L 369.402344 187.417969 C 369.457031 187.535156 369.503906 187.632812 369.546875 187.734375 C 370.085938 189.199219 370.90625 190.484375 372.015625 191.597656 C 373.121094 192.703125 374.410156 193.523438 375.882812 194.066406 L 376.1875 194.210938 C 376.15625 194.304688 376.125 194.394531 376.097656 194.472656 C 375.429688 195.929688 375.097656 197.453125 375.097656 199.050781 C 375.097656 200.644531 375.429688 202.171875 376.097656 203.617188 C 376.125 203.703125 376.15625 203.796875 376.1875 203.886719 L 375.882812 204.03125 C 374.410156 204.570312 373.121094 205.398438 372.015625 206.5 C 370.90625 207.605469 370.085938 208.894531 369.546875 210.367188 C 369.503906 210.457031 369.457031 210.566406 369.402344 210.671875 L 369.132812 210.582031 C 367.6875 209.921875 366.160156 209.589844 364.566406 209.589844 C 362.964844 209.589844 361.445312 209.921875 359.988281 210.582031 L 359.71875 210.671875 C 359.675781 210.566406 359.621094 210.457031 359.574219 210.367188 C 359.039062 208.894531 358.21875 207.605469 357.113281 206.5 C 356 205.398438 354.714844 204.570312 353.25 204.03125 L 352.933594 203.886719 L 353.027344 203.617188 C 353.695312 202.171875 354.023438 200.644531 354.023438 199.050781 C 354.023438 197.453125 353.695312 195.929688 353.027344 194.472656 Z M 353.027344 194.472656 "/>
</g>
<path style=" stroke:none;fill-rule:nonzero;fill:rgb(0%,0%,0%);fill-opacity:1;" d="M 385.535156 280.421875 C 384.328125 277.527344 381.699219 276.285156 379.960938 275.464844 C 379.585938 275.285156 379.046875 275.035156 378.792969 274.878906 C 378.632812 274.621094 378.378906 274.082031 378.210938 273.714844 C 377.390625 271.976562 376.148438 269.34375 373.25 268.140625 C 370.414062 266.96875 367.722656 267.917969 365.9375 268.554688 C 365.484375 268.722656 365.023438 268.871094 364.566406 268.992188 C 364.097656 268.871094 363.636719 268.722656 363.183594 268.554688 C 361.40625 267.925781 358.707031 266.96875 355.871094 268.140625 C 352.972656 269.34375 351.730469 271.976562 350.910156 273.714844 C 350.742188 274.082031 350.488281 274.621094 350.328125 274.878906 C 350.074219 275.035156 349.539062 275.285156 349.164062 275.464844 C 347.421875 276.285156 344.792969 277.527344 343.597656 280.421875 C 342.417969 283.253906 343.375 285.953125 344.003906 287.738281 C 344.179688 288.183594 344.324219 288.640625 344.441406 289.109375 C 344.324219 289.578125 344.179688 290.039062 344.003906 290.480469 C 343.375 292.269531 342.417969 294.96875 343.597656 297.796875 C 344.792969 300.703125 347.421875 301.9375 349.171875 302.757812 C 349.539062 302.933594 350.074219 303.1875 350.328125 303.347656 C 350.488281 303.601562 350.742188 304.136719 350.910156 304.503906 C 351.730469 306.246094 352.972656 308.875 355.871094 310.078125 C 356.785156 310.453125 357.734375 310.644531 358.714844 310.636719 C 360.265625 310.578125 361.75 310.253906 363.183594 309.671875 C 363.636719 309.496094 364.097656 309.351562 364.566406 309.226562 C 365.023438 309.351562 365.484375 309.496094 365.9375 309.664062 C 367.722656 310.300781 370.414062 311.25 373.25 310.078125 C 376.148438 308.875 377.390625 306.253906 378.210938 304.503906 C 378.378906 304.136719 378.632812 303.601562 378.792969 303.339844 C 379.046875 303.1875 379.585938 302.933594 379.960938 302.757812 C 381.699219 301.9375 384.328125 300.703125 385.535156 297.796875 C 386.707031 294.96875 385.75 292.269531 385.121094 290.480469 C 384.941406 290.039062 384.796875 289.578125 384.683594 289.109375 C 384.796875 288.640625 384.941406 288.183594 385.121094 287.738281 C 385.75 285.953125 386.707031 283.253906 385.535156 280.421875 Z M 376.097656 293.6875 C 376.117188 293.761719 376.15625 293.855469 376.1875 293.949219 L 375.875 294.101562 C 374.410156 294.636719 373.121094 295.457031 372.007812 296.5625 C 370.90625 297.671875 370.085938 298.960938 369.546875 300.425781 C 369.503906 300.527344 369.449219 300.625 369.402344 300.742188 L 369.132812 300.640625 C 367.679688 299.980469 366.160156 299.652344 364.558594 299.652344 C 362.964844 299.652344 361.4375 299.980469 359.988281 300.640625 L 359.71875 300.742188 C 359.667969 300.625 359.621094 300.527344 359.574219 300.425781 C 359.039062 298.960938 358.21875 297.671875 357.105469 296.5625 C 356 295.457031 354.714844 294.636719 353.242188 294.101562 L 352.933594 293.949219 L 353.027344 293.6875 C 353.6875 292.230469 354.023438 290.703125 354.023438 289.109375 C 354.023438 287.515625 353.6875 285.988281 353.027344 284.539062 L 352.933594 284.273438 L 353.242188 284.125 C 354.714844 283.589844 356 282.761719 357.105469 281.65625 C 358.21875 280.554688 359.039062 279.265625 359.574219 277.792969 C 359.621094 277.703125 359.667969 277.59375 359.71875 277.488281 L 359.988281 277.578125 C 361.4375 278.238281 362.964844 278.566406 364.558594 278.566406 C 366.160156 278.566406 367.679688 278.238281 369.132812 277.578125 L 369.402344 277.488281 C 369.449219 277.59375 369.503906 277.703125 369.546875 277.792969 C 370.085938 279.265625 370.90625 280.554688 372.007812 281.65625 C 373.121094 282.761719 374.410156 283.589844 375.882812 284.125 L 376.1875 284.273438 C 376.15625 284.363281 376.117188 284.457031 376.097656 284.53125 C 375.429688 285.988281 375.097656 287.515625 375.097656 289.109375 C 375.097656 290.703125 375.429688 292.230469 376.097656 293.6875 Z M 376.097656 293.6875 "/>
<path style=" stroke:none;fill-rule:nonzero;fill:rgb(0%,0%,0%);fill-opacity:1;" d="M 385.535156 325.457031 C 384.328125 322.550781 381.699219 321.316406 379.960938 320.496094 C 379.585938 320.320312 379.046875 320.066406 378.792969 319.90625 C 378.632812 319.652344 378.378906 319.117188 378.210938 318.75 C 377.390625 317.007812 376.148438 314.378906 373.25 313.175781 C 370.414062 311.996094 367.722656 312.953125 365.9375 313.589844 C 365.484375 313.757812 365.023438 313.902344 364.566406 314.019531 C 364.097656 313.902344 363.636719 313.757812 363.183594 313.589844 C 361.40625 312.953125 358.707031 311.996094 355.871094 313.175781 C 352.972656 314.378906 351.730469 317 350.910156 318.75 C 350.742188 319.117188 350.488281 319.652344 350.328125 319.90625 C 350.074219 320.066406 349.539062 320.320312 349.171875 320.496094 C 347.421875 321.316406 344.792969 322.550781 343.597656 325.457031 C 342.417969 328.285156 343.375 330.984375 344.003906 332.765625 C 344.179688 333.214844 344.324219 333.675781 344.441406 334.144531 C 344.324219 334.613281 344.179688 335.070312 344.003906 335.515625 C 343.375 337.300781 342.417969 340 343.597656 342.832031 C 344.792969 345.726562 347.421875 346.96875 349.171875 347.789062 C 349.539062 347.96875 350.074219 348.21875 350.328125 348.375 C 350.488281 348.625 350.742188 349.171875 350.910156 349.539062 C 351.730469 351.277344 352.972656 353.910156 355.871094 355.113281 C 356.785156 355.488281 357.734375 355.671875 358.714844 355.671875 C 360.265625 355.601562 361.75 355.28125 363.183594 354.699219 C 363.636719 354.53125 364.089844 354.382812 364.558594 354.261719 C 365.023438 354.382812 365.484375 354.53125 365.9375 354.699219 C 367.714844 355.335938 370.414062 356.285156 373.25 355.113281 C 376.148438 353.910156 377.382812 351.285156 378.203125 349.539062 C 378.378906 349.171875 378.632812 348.632812 378.792969 348.382812 C 379.046875 348.21875 379.585938 347.96875 379.953125 347.789062 C 381.691406 346.96875 384.324219 345.734375 385.527344 342.839844 C 386.699219 340 385.75 337.300781 385.113281 335.523438 C 384.941406 335.070312 384.796875 334.613281 384.675781 334.144531 C 384.796875 333.675781 384.941406 333.222656 385.113281 332.773438 C 385.75 330.984375 386.707031 328.285156 385.535156 325.457031 Z M 376.097656 338.714844 C 376.117188 338.796875 376.15625 338.890625 376.1875 338.980469 L 375.882812 339.128906 C 374.410156 339.664062 373.121094 340.484375 372.015625 341.597656 C 370.90625 342.699219 370.085938 343.988281 369.546875 345.460938 C 369.503906 345.550781 369.449219 345.660156 369.402344 345.765625 L 369.132812 345.675781 C 367.679688 345.007812 366.160156 344.679688 364.558594 344.679688 C 362.964844 344.679688 361.4375 345.007812 359.988281 345.675781 L 359.71875 345.765625 C 359.667969 345.660156 359.621094 345.550781 359.574219 345.460938 C 359.039062 343.988281 358.21875 342.699219 357.105469 341.597656 C 356 340.484375 354.714844 339.664062 353.242188 339.128906 L 352.933594 338.980469 L 353.027344 338.714844 C 353.6875 337.265625 354.023438 335.738281 354.023438 334.144531 C 354.023438 332.542969 353.6875 331.023438 353.027344 329.566406 L 352.933594 329.296875 L 353.242188 329.152344 C 354.714844 328.617188 356 327.796875 357.105469 326.691406 C 358.21875 325.582031 359.039062 324.292969 359.574219 322.828125 C 359.621094 322.726562 359.667969 322.621094 359.71875 322.511719 L 359.988281 322.605469 C 361.4375 323.273438 362.964844 323.601562 364.558594 323.601562 C 366.160156 323.601562 367.679688 323.273438 369.132812 322.605469 L 369.402344 322.511719 C 369.449219 322.621094 369.503906 322.726562 369.546875 322.828125 C 370.085938 324.292969 370.90625 325.582031 372.007812 326.683594 C 373.121094 327.796875 374.410156 328.617188 375.875 329.152344 L 376.1875 329.296875 C 376.15625 329.398438 376.117188 329.484375 376.097656 329.566406 C 375.429688 331.015625 375.097656 332.542969 375.097656 334.144531 C 375.097656 335.738281 375.429688 337.265625 376.097656 338.714844 Z M 376.097656 338.714844 "/>
<path style=" stroke:none;fill-rule:nonzero;fill:rgb(0%,0%,0%);fill-opacity:1;" d="M 385.535156 370.484375 C 384.328125 367.585938 381.699219 366.34375 379.960938 365.523438 C 379.585938 365.347656 379.046875 365.09375 378.792969 364.941406 C 378.632812 364.6875 378.378906 364.152344 378.210938 363.777344 C 377.390625 362.035156 376.148438 359.40625 373.25 358.203125 C 370.414062 357.027344 367.722656 357.988281 365.9375 358.617188 C 365.484375 358.792969 365.023438 358.9375 364.566406 359.054688 C 364.097656 358.9375 363.636719 358.792969 363.183594 358.617188 C 361.40625 357.988281 358.707031 357.027344 355.871094 358.210938 C 352.972656 359.414062 351.730469 362.035156 350.910156 363.777344 C 350.742188 364.152344 350.488281 364.6875 350.328125 364.941406 C 350.074219 365.101562 349.539062 365.355469 349.171875 365.53125 C 347.421875 366.34375 344.792969 367.585938 343.597656 370.484375 C 342.417969 373.320312 343.375 376.011719 344.003906 377.796875 C 344.179688 378.25 344.324219 378.710938 344.441406 379.179688 C 344.324219 379.636719 344.179688 380.097656 344.003906 380.550781 C 343.375 382.335938 342.417969 385.027344 343.597656 387.863281 C 344.792969 390.761719 347.421875 392.003906 349.171875 392.824219 C 349.539062 393 350.074219 393.253906 350.328125 393.40625 C 350.488281 393.660156 350.742188 394.195312 350.910156 394.574219 C 351.730469 396.3125 352.972656 398.941406 355.871094 400.144531 C 356.785156 400.523438 357.734375 400.707031 358.714844 400.699219 C 360.265625 400.636719 361.75 400.316406 363.183594 399.730469 C 363.636719 399.5625 364.089844 399.417969 364.558594 399.296875 C 365.023438 399.417969 365.484375 399.5625 365.9375 399.730469 C 367.714844 400.367188 370.414062 401.320312 373.25 400.144531 C 376.148438 398.941406 377.382812 396.3125 378.203125 394.574219 C 378.378906 394.203125 378.632812 393.667969 378.792969 393.40625 C 379.046875 393.253906 379.585938 393 379.953125 392.824219 C 381.691406 392.003906 384.324219 390.761719 385.527344 387.863281 C 386.699219 385.035156 385.75 382.335938 385.113281 380.550781 C 384.941406 380.097656 384.796875 379.644531 384.675781 379.179688 C 384.796875 378.710938 384.941406 378.25 385.113281 377.796875 C 385.75 376.011719 386.707031 373.320312 385.535156 370.484375 Z M 376.097656 383.746094 C 376.117188 383.824219 376.15625 383.914062 376.1875 384.015625 L 375.875 384.160156 C 374.410156 384.699219 373.121094 385.519531 372.007812 386.621094 C 370.90625 387.734375 370.085938 389.023438 369.546875 390.488281 C 369.503906 390.585938 369.449219 390.6875 369.402344 390.800781 L 369.132812 390.699219 C 367.679688 390.042969 366.160156 389.710938 364.558594 389.710938 C 362.964844 389.710938 361.4375 390.042969 359.988281 390.699219 L 359.71875 390.800781 C 359.667969 390.6875 359.621094 390.585938 359.574219 390.488281 C 359.039062 389.023438 358.21875 387.734375 357.105469 386.621094 C 356 385.519531 354.714844 384.699219 353.242188 384.160156 L 352.933594 384.015625 L 353.027344 383.746094 C 353.6875 382.289062 354.023438 380.765625 354.023438 379.171875 C 354.023438 377.574219 353.6875 376.050781 353.027344 374.601562 L 352.933594 374.332031 L 353.242188 374.1875 C 354.714844 373.648438 356 372.828125 357.105469 371.71875 C 358.21875 370.613281 359.039062 369.328125 359.574219 367.855469 C 359.621094 367.761719 359.667969 367.65625 359.71875 367.546875 L 359.988281 367.640625 C 361.4375 368.300781 362.964844 368.636719 364.558594 368.636719 C 366.160156 368.636719 367.679688 368.300781 369.132812 367.640625 L 369.402344 367.546875 C 369.449219 367.65625 369.503906 367.761719 369.546875 367.855469 C 370.085938 369.328125 370.90625 370.613281 372.007812 371.71875 C 373.121094 372.828125 374.410156 373.648438 375.882812 374.1875 L 376.1875 374.332031 C 376.15625 374.425781 376.117188 374.515625 376.097656 374.601562 C 375.429688 376.050781 375.097656 377.574219 375.097656 379.171875 C 375.097656 380.765625 375.429688 382.289062 376.097656 383.746094 Z M 376.097656 383.746094 "/>
<path style=" stroke:none;fill-rule:nonzero;fill:rgb(0%,0%,0%);fill-opacity:1;" d="M 385.121094 425.578125 C 384.941406 425.125 384.796875 424.671875 384.683594 424.203125 C 384.796875 423.738281 384.941406 423.277344 385.121094 422.824219 C 385.75 421.046875 386.707031 418.347656 385.535156 415.519531 C 384.328125 412.613281 381.699219 411.378906 379.960938 410.558594 C 379.585938 410.382812 379.046875 410.128906 378.792969 409.96875 C 378.632812 409.714844 378.378906 409.175781 378.210938 408.808594 C 377.390625 407.070312 376.148438 404.441406 373.25 403.234375 C 370.414062 402.054688 367.722656 403.011719 365.9375 403.648438 C 365.484375 403.820312 365.023438 403.964844 364.566406 404.085938 C 364.097656 403.964844 363.636719 403.820312 363.183594 403.648438 C 361.40625 403.011719 358.707031 402.0625 355.871094 403.234375 C 352.972656 404.441406 351.730469 407.0625 350.910156 408.808594 C 350.742188 409.175781 350.488281 409.714844 350.328125 409.96875 C 350.074219 410.128906 349.539062 410.382812 349.171875 410.558594 C 347.421875 411.378906 344.792969 412.613281 343.597656 415.519531 C 342.417969 418.347656 343.375 421.046875 344.003906 422.824219 C 344.179688 423.277344 344.324219 423.738281 344.441406 424.203125 C 344.324219 424.671875 344.179688 425.132812 344.003906 425.578125 C 343.375 427.363281 342.417969 430.0625 343.597656 432.890625 C 344.792969 435.789062 347.421875 437.03125 349.171875 437.851562 C 349.539062 438.027344 350.074219 438.28125 350.328125 438.433594 C 350.488281 438.695312 350.742188 439.230469 350.910156 439.597656 C 351.730469 441.339844 352.972656 443.96875 355.871094 445.171875 C 356.785156 445.546875 357.734375 445.730469 358.714844 445.730469 C 360.265625 445.671875 361.75 445.339844 363.183594 444.757812 C 363.636719 444.589844 364.089844 444.445312 364.558594 444.328125 C 365.023438 444.445312 365.484375 444.589844 365.9375 444.757812 C 367.714844 445.394531 370.414062 446.351562 373.25 445.171875 C 376.148438 443.96875 377.382812 441.347656 378.203125 439.597656 C 378.378906 439.230469 378.632812 438.695312 378.792969 438.441406 C 379.046875 438.28125 379.585938 438.027344 379.953125 437.851562 C 381.691406 437.03125 384.324219 435.796875 385.527344 432.898438 C 386.707031 430.0625 385.75 427.363281 385.121094 425.578125 Z M 376.089844 428.773438 C 376.117188 428.859375 376.15625 428.949219 376.1875 429.042969 L 375.875 429.1875 C 374.410156 429.722656 373.121094 430.550781 372.007812 431.65625 C 370.90625 432.761719 370.085938 434.046875 369.546875 435.519531 C 369.503906 435.613281 369.449219 435.71875 369.394531 435.828125 L 369.132812 435.734375 C 367.679688 435.074219 366.160156 434.738281 364.558594 434.738281 C 362.964844 434.738281 361.4375 435.074219 359.988281 435.734375 L 359.71875 435.828125 C 359.667969 435.71875 359.621094 435.613281 359.574219 435.519531 C 359.039062 434.046875 358.21875 432.761719 357.105469 431.65625 C 356 430.550781 354.714844 429.722656 353.242188 429.1875 L 352.933594 429.042969 L 353.027344 428.773438 C 353.6875 427.324219 354.023438 425.800781 354.023438 424.203125 C 354.023438 422.609375 353.6875 421.085938 353.027344 419.628906 L 352.933594 419.367188 L 353.242188 419.214844 C 354.714844 418.675781 356 417.855469 357.105469 416.753906 C 358.21875 415.640625 359.039062 414.351562 359.574219 412.886719 C 359.621094 412.789062 359.667969 412.6875 359.71875 412.574219 L 359.988281 412.671875 C 361.4375 413.332031 362.964844 413.664062 364.558594 413.664062 C 366.160156 413.664062 367.679688 413.332031 369.132812 412.671875 L 369.394531 412.574219 C 369.449219 412.6875 369.503906 412.789062 369.546875 412.886719 C 370.085938 414.351562 370.90625 415.640625 372.007812 416.753906 C 373.121094 417.855469 374.410156 418.675781 375.875 419.214844 L 376.1875 419.367188 C 376.15625 419.457031 376.117188 419.550781 376.089844 419.628906 C 375.429688 421.085938 375.097656 422.609375 375.097656 424.203125 C 375.097656 425.800781 375.429688 427.324219 376.089844 428.773438 Z M 376.089844 428.773438 "/>
<path style=" stroke:none;fill-rule:nonzero;fill:rgb(0%,0%,0%);fill-opacity:1;" d="M 343.589844 477.917969 C 344.792969 480.824219 347.421875 482.058594 349.164062 482.886719 C 349.539062 483.054688 350.074219 483.308594 350.328125 483.46875 C 350.488281 483.71875 350.742188 484.257812 350.910156 484.625 C 351.730469 486.375 352.972656 489.003906 355.871094 490.199219 C 356.785156 490.582031 357.734375 490.765625 358.714844 490.757812 C 360.265625 490.699219 361.75 490.375 363.183594 489.792969 C 363.628906 489.625 364.089844 489.476562 364.558594 489.355469 C 365.023438 489.476562 365.484375 489.625 365.9375 489.792969 C 367.714844 490.429688 370.414062 491.378906 373.25 490.207031 C 376.148438 489.003906 377.382812 486.375 378.203125 484.632812 C 378.378906 484.265625 378.632812 483.71875 378.792969 483.46875 C 379.046875 483.308594 379.585938 483.0625 379.953125 482.886719 C 381.691406 482.066406 384.324219 480.824219 385.527344 477.925781 C 386.699219 475.09375 385.75 472.398438 385.113281 470.609375 C 384.941406 470.164062 384.796875 469.707031 384.675781 469.238281 C 384.796875 468.769531 384.941406 468.3125 385.113281 467.859375 C 385.75 466.078125 386.699219 463.382812 385.527344 460.550781 C 384.324219 457.644531 381.699219 456.410156 379.953125 455.589844 C 379.585938 455.414062 379.046875 455.164062 378.792969 455 C 378.632812 454.75 378.378906 454.210938 378.203125 453.84375 C 377.382812 452.101562 376.148438 449.464844 373.25 448.269531 C 370.414062 447.089844 367.714844 448.046875 365.9375 448.683594 C 365.484375 448.851562 365.023438 449 364.558594 449.113281 C 364.089844 449 363.636719 448.851562 363.183594 448.683594 C 361.398438 448.046875 358.699219 447.089844 355.871094 448.269531 C 352.972656 449.472656 351.730469 452.09375 350.910156 453.84375 C 350.734375 454.210938 350.480469 454.75 350.328125 455 C 350.074219 455.164062 349.53125 455.414062 349.164062 455.589844 C 347.421875 456.410156 344.792969 457.644531 343.589844 460.550781 C 342.417969 463.382812 343.375 466.078125 344.003906 467.859375 C 344.171875 468.3125 344.316406 468.769531 344.441406 469.238281 C 344.316406 469.707031 344.171875 470.164062 344.003906 470.609375 C 343.375 472.398438 342.417969 475.089844 343.589844 477.917969 Z M 353.027344 464.660156 L 352.933594 464.394531 L 353.25 464.246094 C 354.714844 463.710938 356 462.890625 357.113281 461.777344 C 358.21875 460.675781 359.039062 459.386719 359.574219 457.914062 C 359.621094 457.824219 359.675781 457.714844 359.71875 457.609375 L 359.988281 457.699219 C 361.445312 458.367188 362.964844 458.695312 364.566406 458.695312 C 366.160156 458.695312 367.6875 458.367188 369.132812 457.699219 L 369.402344 457.609375 C 369.457031 457.714844 369.503906 457.824219 369.546875 457.914062 C 370.085938 459.386719 370.90625 460.675781 372.015625 461.777344 C 373.121094 462.890625 374.410156 463.710938 375.882812 464.246094 L 376.1875 464.394531 C 376.15625 464.484375 376.125 464.578125 376.097656 464.660156 C 375.429688 466.109375 375.097656 467.636719 375.097656 469.230469 C 375.097656 470.832031 375.429688 472.351562 376.097656 473.808594 C 376.125 473.882812 376.15625 473.976562 376.1875 474.074219 L 375.882812 474.222656 C 374.410156 474.757812 373.121094 475.578125 372.015625 476.683594 C 370.90625 477.792969 370.085938 479.082031 369.546875 480.546875 C 369.503906 480.644531 369.457031 480.753906 369.402344 480.859375 L 369.132812 480.769531 C 367.6875 480.101562 366.160156 479.773438 364.566406 479.773438 C 362.964844 479.773438 361.445312 480.101562 359.988281 480.769531 L 359.71875 480.859375 C 359.675781 480.753906 359.621094 480.644531 359.574219 480.546875 C 359.039062 479.082031 358.21875 477.792969 357.113281 476.683594 C 356 475.578125 354.714844 474.757812 353.25 474.222656 L 352.933594 474.074219 C 352.964844 473.976562 353.003906 473.890625 353.027344 473.808594 C 353.695312 472.351562 354.023438 470.832031 354.023438 469.230469 C 354.023438 467.636719 353.695312 466.109375 353.027344 464.660156 Z M 353.027344 464.660156 "/>
<path style=" stroke:none;fill-rule:nonzero;fill:rgb(0%,0%,0%);fill-opacity:1;" d="M 475.703125 367.035156 C 475.703125 367.671875 475.816406 368.277344 476.0625 368.867188 C 476.308594 369.449219 476.652344 369.96875 477.097656 370.414062 C 477.550781 370.867188 478.0625 371.210938 478.652344 371.457031 C 479.234375 371.703125 479.847656 371.816406 480.484375 371.816406 L 535.0625 371.816406 C 535.691406 371.816406 536.304688 371.703125 536.898438 371.457031 C 537.480469 371.210938 538 370.867188 538.445312 370.414062 C 538.898438 369.96875 539.242188 369.449219 539.480469 368.867188 C 539.726562 368.277344 539.847656 367.671875 539.847656 367.035156 C 539.847656 366.398438 539.726562 365.792969 539.480469 365.203125 C 539.242188 364.617188 538.898438 364.097656 538.445312 363.644531 C 538 363.199219 537.480469 362.855469 536.898438 362.609375 C 536.304688 362.363281 535.691406 362.25 535.0625 362.25 L 480.484375 362.25 C 479.847656 362.25 479.234375 362.363281 478.652344 362.609375 C 478.0625 362.855469 477.550781 363.199219 477.097656 363.644531 C 476.652344 364.097656 476.308594 364.617188 476.0625 365.203125 C 475.816406 365.792969 475.703125 366.398438 475.703125 367.035156 Z M 475.703125 367.035156 "/>
<path style=" stroke:none;fill-rule:nonzero;fill:rgb(0%,0%,0%);fill-opacity:1;" d="M 195.164062 362.25 C 194.527344 362.25 193.914062 362.363281 193.332031 362.609375 C 192.738281 362.855469 192.226562 363.199219 191.773438 363.644531 C 191.328125 364.097656 190.976562 364.617188 190.738281 365.203125 C 190.492188 365.792969 190.371094 366.398438 190.371094 367.035156 C 190.371094 367.671875 190.492188 368.277344 190.738281 368.867188 C 190.976562 369.449219 191.328125 369.96875 191.773438 370.414062 C 192.226562 370.867188 192.738281 371.210938 193.332031 371.457031 C 193.914062 371.703125 194.527344 371.816406 195.164062 371.816406 L 249.742188 371.816406 C 250.378906 371.816406 250.984375 371.703125 251.574219 371.457031 C 252.15625 371.210938 252.679688 370.867188 253.121094 370.414062 C 253.574219 369.96875 253.921875 369.449219 254.164062 368.867188 C 254.402344 368.277344 254.527344 367.671875 254.527344 367.035156 C 254.527344 366.398438 254.402344 365.792969 254.164062 365.203125 C 253.921875 364.617188 253.574219 364.097656 253.121094 363.644531 C 252.679688 363.199219 252.15625 362.855469 251.574219 362.609375 C 250.984375 362.363281 250.378906 362.25 249.742188 362.25 Z M 195.164062 362.25 "/>
<path style=" stroke:none;fill-rule:nonzero;fill:rgb(0%,0%,0%);fill-opacity:1;" d="M 481.902344 243.476562 L 443.308594 282.0625 C 442.851562 282.515625 442.496094 283.03125 442.242188 283.621094 C 441.992188 284.210938 441.867188 284.824219 441.859375 285.46875 C 441.851562 286.105469 441.976562 286.726562 442.222656 287.316406 C 442.457031 287.90625 442.8125 288.425781 443.261719 288.878906 C 443.714844 289.339844 444.238281 289.683594 444.828125 289.929688 C 445.425781 290.167969 446.039062 290.289062 446.683594 290.28125 C 447.320312 290.28125 447.933594 290.152344 448.523438 289.898438 C 449.113281 289.65625 449.632812 289.292969 450.078125 288.835938 L 488.671875 250.246094 C 489.132812 249.796875 489.484375 249.28125 489.738281 248.691406 C 489.984375 248.101562 490.113281 247.488281 490.121094 246.84375 C 490.121094 246.207031 490.007812 245.585938 489.761719 244.996094 C 489.515625 244.40625 489.171875 243.882812 488.71875 243.433594 C 488.265625 242.980469 487.746094 242.628906 487.148438 242.382812 C 486.558594 242.144531 485.945312 242.019531 485.300781 242.027344 C 484.664062 242.027344 484.042969 242.160156 483.460938 242.414062 C 482.871094 242.65625 482.347656 243.019531 481.902344 243.476562 Z M 481.902344 243.476562 "/>
<path style=" stroke:none;fill-rule:nonzero;fill:rgb(0%,0%,0%);fill-opacity:1;" d="M 283.527344 290.238281 C 284.503906 290.238281 285.382812 289.96875 286.1875 289.433594 C 286.992188 288.894531 287.585938 288.183594 287.953125 287.285156 C 288.328125 286.386719 288.414062 285.46875 288.226562 284.519531 C 288.035156 283.566406 287.601562 282.753906 286.917969 282.0625 L 248.324219 243.476562 C 247.878906 243.019531 247.355469 242.65625 246.765625 242.414062 C 246.175781 242.160156 245.5625 242.027344 244.925781 242.027344 C 244.28125 242.019531 243.667969 242.144531 243.070312 242.382812 C 242.480469 242.628906 241.960938 242.972656 241.507812 243.433594 C 241.054688 243.882812 240.703125 244.40625 240.464844 244.996094 C 240.21875 245.585938 240.097656 246.207031 240.105469 246.84375 C 240.113281 247.488281 240.234375 248.101562 240.488281 248.691406 C 240.742188 249.28125 241.09375 249.796875 241.554688 250.246094 L 280.148438 288.839844 C 281.082031 289.777344 282.210938 290.246094 283.527344 290.238281 Z M 283.527344 290.238281 "/>
</g>
</svg>
