<svg xmlns="http://www.w3.org/2000/svg" xmlns:xlink="http://www.w3.org/1999/xlink" width="500" zoomAndPan="magnify" viewBox="0 0 375 374.999991" height="500" preserveAspectRatio="xMidYMid meet" version="1.0"><defs><clipPath id="0da6df0740"><path d="M 74.148438 128 L 300.648438 128 L 300.648438 298.230469 L 74.148438 298.230469 Z M 74.148438 128 " clip-rule="nonzero"/></clipPath></defs><rect x="-37.5" width="450" fill="#ffffff" y="-37.499999" height="449.999989" fill-opacity="1"/><rect x="-37.5" width="450" fill="#ffffff" y="-37.499999" height="449.999989" fill-opacity="1"/><path fill="#000000" d="M 182.835938 82.625 C 181.964844 82.625 181.414062 83.101562 181.171875 83.382812 C 180.925781 83.671875 180.53125 84.277344 180.652344 85.140625 L 182.609375 102.351562 C 182.75 103.363281 183.691406 104.179688 184.78125 104.179688 L 186.421875 104.179688 C 187.511719 104.179688 188.453125 103.363281 188.597656 102.28125 L 190.539062 85.210938 C 190.671875 84.277344 190.277344 83.671875 190.03125 83.382812 C 189.785156 83.101562 189.238281 82.625 188.367188 82.625 Z M 186.421875 109.582031 L 184.78125 109.582031 C 181.023438 109.582031 177.785156 106.769531 177.257812 103.039062 L 175.308594 85.824219 C 175.003906 83.714844 175.65625 81.503906 177.105469 79.84375 C 178.542969 78.175781 180.636719 77.222656 182.835938 77.222656 L 188.367188 77.222656 C 190.566406 77.222656 192.65625 78.175781 194.097656 79.84375 C 195.542969 81.503906 196.195312 83.714844 195.886719 85.894531 L 193.949219 102.960938 C 193.417969 106.769531 190.179688 109.582031 186.421875 109.582031 " fill-opacity="1" fill-rule="nonzero"/><path fill="#000000" d="M 140.78125 97.917969 C 140.441406 97.917969 140.027344 97.996094 139.613281 98.261719 L 134.9375 101.226562 C 134.199219 101.6875 133.996094 102.386719 133.941406 102.757812 C 133.882812 103.125 133.871094 103.847656 134.4375 104.515625 L 145.28125 118.019531 C 145.933594 118.792969 147.15625 118.976562 148.089844 118.398438 L 149.472656 117.519531 C 149.472656 117.519531 149.472656 117.511719 149.472656 117.511719 C 150.394531 116.925781 150.75 115.738281 150.300781 114.746094 L 142.832031 99.285156 C 142.4375 98.417969 141.785156 98.117188 141.425781 98.011719 C 141.269531 97.960938 141.046875 97.917969 140.78125 97.917969 Z M 146.925781 124.132812 C 144.753906 124.132812 142.605469 123.203125 141.125 121.457031 L 130.28125 107.964844 C 128.90625 106.339844 128.273438 104.125 128.605469 101.941406 C 128.941406 99.761719 130.199219 97.839844 132.058594 96.660156 L 136.734375 93.691406 C 138.589844 92.515625 140.863281 92.207031 142.972656 92.839844 C 145.085938 93.464844 146.804688 94.984375 147.710938 96.988281 L 155.1875 112.453125 C 156.769531 115.957031 155.53125 120.066406 152.359375 122.078125 L 150.96875 122.957031 C 149.726562 123.75 148.320312 124.132812 146.925781 124.132812 " fill-opacity="1" fill-rule="nonzero"/><path fill="#000000" d="M 230.421875 97.917969 C 230.15625 97.917969 229.929688 97.960938 229.777344 98.011719 C 229.417969 98.117188 228.765625 98.417969 228.398438 99.21875 L 220.867188 114.808594 C 220.449219 115.738281 220.808594 116.925781 221.730469 117.511719 C 221.730469 117.511719 221.730469 117.519531 221.730469 117.519531 L 223.121094 118.398438 C 224.039062 118.980469 225.269531 118.792969 225.96875 117.960938 L 236.714844 104.574219 C 237.332031 103.847656 237.316406 103.125 237.261719 102.757812 C 237.207031 102.386719 237 101.6875 236.265625 101.226562 L 231.585938 98.261719 C 231.171875 97.996094 230.757812 97.917969 230.421875 97.917969 Z M 224.265625 124.125 C 222.867188 124.125 221.46875 123.746094 220.234375 122.964844 L 218.84375 122.078125 C 215.667969 120.066406 214.433594 115.957031 215.984375 112.515625 L 223.519531 96.925781 C 224.398438 94.984375 226.117188 93.464844 228.230469 92.839844 C 230.34375 92.207031 232.613281 92.515625 234.464844 93.691406 L 239.144531 96.660156 C 241.003906 97.839844 242.261719 99.761719 242.597656 101.941406 C 242.929688 104.125 242.296875 106.339844 240.871094 108.015625 L 230.128906 121.402344 C 228.609375 123.1875 226.441406 124.125 224.265625 124.125 " fill-opacity="1" fill-rule="nonzero"/><g clip-path="url(#0da6df0740)"><path fill="#000000" d="M 295.253906 173.003906 C 295.253906 176.445312 292.46875 179.238281 289.035156 179.238281 L 286.378906 179.238281 L 286.378906 164.054688 L 289.035156 164.054688 C 292.46875 164.054688 295.253906 166.847656 295.253906 170.28125 Z M 280.988281 184.105469 C 280.988281 189.390625 277.273438 193.816406 272.328125 194.914062 C 272.34375 194.597656 272.371094 194.28125 272.371094 193.964844 L 272.371094 149.332031 C 272.371094 149.007812 272.34375 148.699219 272.328125 148.375 C 277.273438 149.472656 280.988281 153.898438 280.988281 159.179688 Z M 266.976562 193.964844 C 266.976562 202.722656 259.863281 209.847656 251.128906 209.847656 C 242.386719 209.847656 235.273438 202.722656 235.273438 193.964844 L 235.273438 149.332031 C 235.273438 140.574219 242.386719 133.445312 251.128906 133.445312 C 259.863281 133.445312 266.976562 140.574219 266.976562 149.332031 Z M 229.882812 186.351562 C 229.089844 184.703125 228.203125 183.101562 227.128906 181.582031 C 226.910156 181.257812 224.515625 177.640625 221.511719 173.257812 C 221.945312 172.089844 222.207031 170.839844 222.207031 169.523438 L 222.207031 157.160156 L 229.882812 157.160156 Z M 227.074219 205.878906 C 225.597656 212.234375 222.726562 218.515625 218.4375 224.691406 C 212.777344 232.824219 209.664062 237.300781 209.664062 247.832031 L 209.664062 289.851562 C 209.664062 291.429688 208.378906 292.710938 206.8125 292.710938 L 163.558594 292.710938 C 161.984375 292.710938 160.707031 291.429688 160.707031 289.851562 L 160.707031 250.441406 C 160.707031 241.027344 158.082031 231.285156 155.308594 220.964844 C 152.710938 211.324219 150.085938 201.390625 149.65625 191.585938 L 194.21875 191.585938 C 184.816406 194.667969 179.359375 204.148438 177.484375 209.980469 C 177.027344 211.402344 177.808594 212.921875 179.230469 213.378906 C 180.652344 213.835938 182.167969 213.054688 182.625 211.636719 C 184.378906 206.160156 189.890625 196.714844 199.390625 196.023438 C 201.792969 195.847656 203.957031 194.484375 205.171875 192.386719 C 206.398438 190.25 206.503906 187.644531 205.4375 185.429688 C 202.445312 179.222656 199.777344 174.488281 197.480469 171.359375 C 195.550781 168.714844 194.316406 164.597656 197.214844 161.699219 C 198.570312 160.335938 200.496094 159.574219 202.417969 159.652344 C 204.019531 159.722656 205.429688 160.382812 206.394531 161.523438 C 210.824219 166.800781 222.523438 184.394531 222.683594 184.632812 C 227.136719 190.972656 228.738281 198.71875 227.074219 205.878906 Z M 146.804688 191.59375 C 146.785156 191.59375 146.769531 191.585938 146.75 191.585938 L 146.855469 191.585938 C 146.832031 191.585938 146.820312 191.59375 146.804688 191.59375 Z M 144.914062 157.160156 L 152.289062 157.160156 L 152.289062 172.257812 C 152.289062 178.203125 157.121094 183.039062 163.054688 183.039062 C 166.5 183.039062 169.570312 181.398438 171.535156 178.867188 C 173.496094 180.84375 176.199219 182.066406 179.183594 182.066406 C 182.839844 182.066406 186.070312 180.222656 188.015625 177.421875 C 189.941406 179.203125 192.496094 180.308594 195.3125 180.308594 C 195.777344 180.308594 196.226562 180.273438 196.675781 180.210938 C 197.664062 181.976562 198.710938 183.988281 199.800781 186.183594 L 144.914062 186.183594 Z M 157.683594 152.890625 C 157.683594 149.921875 160.089844 147.507812 163.054688 147.507812 C 166.011719 147.507812 168.425781 149.921875 168.425781 152.890625 L 168.425781 172.257812 C 168.425781 175.222656 166.011719 177.632812 163.054688 177.632812 C 160.089844 177.632812 157.683594 175.222656 157.683594 172.257812 Z M 173.816406 146.445312 C 173.816406 143.484375 176.21875 141.074219 179.183594 141.074219 C 182.144531 141.074219 184.554688 143.484375 184.554688 146.445312 L 184.554688 171.28125 C 184.554688 174.25 182.144531 176.664062 179.183594 176.664062 C 176.21875 176.664062 173.816406 174.25 173.816406 171.28125 Z M 189.949219 143.71875 C 189.949219 140.75 192.355469 138.335938 195.3125 138.335938 C 198.277344 138.335938 200.683594 140.75 200.683594 143.71875 L 200.683594 154.339844 C 197.9375 154.664062 195.375 155.894531 193.402344 157.878906 C 189.148438 162.144531 189.015625 168.742188 193.015625 174.363281 C 191.203125 173.496094 189.949219 171.660156 189.949219 169.523438 Z M 206.078125 144.6875 C 206.078125 141.726562 208.484375 139.3125 211.449219 139.3125 C 214.40625 139.3125 216.8125 141.726562 216.8125 144.6875 L 216.8125 166.496094 C 214.390625 163.0625 212.066406 159.890625 210.515625 158.042969 C 209.320312 156.621094 207.796875 155.570312 206.078125 154.9375 Z M 139.523438 193.964844 C 139.523438 202.722656 132.410156 209.847656 123.667969 209.847656 C 114.925781 209.847656 107.8125 202.722656 107.8125 193.964844 L 107.8125 149.332031 C 107.8125 140.574219 114.925781 133.445312 123.667969 133.445312 C 132.410156 133.445312 139.523438 140.574219 139.523438 149.332031 Z M 93.808594 184.105469 L 93.808594 159.179688 C 93.808594 153.898438 97.523438 149.488281 102.46875 148.390625 C 102.453125 148.707031 102.417969 149.015625 102.417969 149.332031 L 102.417969 193.964844 C 102.417969 194.28125 102.453125 194.597656 102.46875 194.914062 C 97.523438 193.816406 93.808594 189.390625 93.808594 184.105469 Z M 88.417969 179.238281 L 85.757812 179.238281 C 82.328125 179.238281 79.542969 176.445312 79.542969 173.003906 L 79.542969 170.28125 C 79.542969 166.847656 82.328125 164.054688 85.757812 164.054688 L 88.417969 164.054688 Z M 289.035156 158.652344 L 286.351562 158.652344 C 286.085938 150.28125 279.570312 143.476562 271.332031 142.773438 C 268.566406 134.242188 260.558594 128.042969 251.128906 128.042969 C 239.410156 128.042969 229.882812 137.589844 229.882812 149.332031 L 229.882812 151.757812 L 222.207031 151.757812 L 222.207031 144.6875 C 222.207031 138.742188 217.382812 133.910156 211.449219 133.910156 C 208.457031 133.910156 205.753906 135.132812 203.800781 137.113281 C 201.835938 134.578125 198.765625 132.933594 195.3125 132.933594 C 191.394531 132.933594 187.972656 135.050781 186.09375 138.195312 C 184.21875 136.617188 181.808594 135.667969 179.183594 135.667969 C 174.175781 135.667969 169.964844 139.117188 168.777344 143.773438 C 167.113281 142.726562 165.152344 142.105469 163.054688 142.105469 C 157.5 142.105469 152.921875 146.339844 152.351562 151.757812 L 144.914062 151.757812 L 144.914062 149.332031 C 144.914062 137.589844 135.386719 128.042969 123.667969 128.042969 C 114.222656 128.042969 106.210938 134.25 103.453125 142.804688 C 95.222656 143.511719 88.710938 150.289062 88.445312 158.652344 L 85.757812 158.652344 C 79.359375 158.652344 74.148438 163.867188 74.148438 170.28125 L 74.148438 173.003906 C 74.148438 179.421875 79.359375 184.640625 85.757812 184.640625 L 88.445312 184.640625 C 88.710938 193.007812 95.222656 199.816406 103.464844 200.511719 C 106.230469 209.054688 114.238281 215.25 123.667969 215.25 C 134.347656 215.25 143.179688 207.316406 144.671875 197.03125 C 145.632812 205.628906 147.871094 214.113281 150.097656 222.378906 C 152.78125 232.332031 155.316406 241.738281 155.316406 250.441406 L 155.316406 289.851562 C 155.316406 294.40625 159.015625 298.113281 163.558594 298.113281 L 206.8125 298.113281 C 211.359375 298.113281 215.058594 294.40625 215.058594 289.851562 L 215.058594 247.832031 C 215.058594 239.003906 217.5 235.484375 222.957031 227.640625 C 227.542969 221.042969 230.695312 214.132812 232.324219 207.105469 C 232.515625 206.28125 232.640625 205.453125 232.761719 204.613281 C 236.441406 210.96875 243.285156 215.25 251.128906 215.25 C 260.558594 215.25 268.566406 209.054688 271.332031 200.511719 C 279.570312 199.816406 286.085938 193.007812 286.351562 184.640625 L 289.035156 184.640625 C 295.4375 184.640625 300.648438 179.421875 300.648438 173.003906 L 300.648438 170.28125 C 300.648438 163.867188 295.4375 158.652344 289.035156 158.652344 " fill-opacity="1" fill-rule="nonzero"/></g></svg>