<?xml version="1.0" encoding="UTF-8"?>
<svg xmlns="http://www.w3.org/2000/svg" xmlns:xlink="http://www.w3.org/1999/xlink" width="736px" height="736px" viewBox="0 0 736 736" version="1.1">
<defs>
<clipPath id="clip1">
  <path d="M 195.667969 183 L 486 183 L 486 553.140625 L 195.667969 553.140625 Z M 195.667969 183 "/>
</clipPath>
<clipPath id="clip2">
  <path d="M 325 382.71875 L 540.117188 382.71875 L 540.117188 553.140625 L 325 553.140625 Z M 325 382.71875 "/>
</clipPath>
</defs>
<g id="surface1">
<rect x="0" y="0" width="736" height="736" style="fill:rgb(100%,100%,100%);fill-opacity:1;stroke:none;"/>
<g clip-path="url(#clip1)" clip-rule="nonzero">
<path style=" stroke:none;fill-rule:nonzero;fill:rgb(0%,0%,0%);fill-opacity:1;" d="M 355.121094 307.5625 L 278.753906 307.5625 C 280.15625 298.300781 280.324219 280.007812 264.628906 264.324219 C 243.046875 242.742188 216.523438 251.167969 215.402344 251.535156 C 213.65625 252.109375 212.289062 253.476562 211.714844 255.214844 C 211.347656 256.335938 202.921875 282.871094 224.503906 304.449219 C 225.628906 305.578125 226.765625 306.589844 227.914062 307.554688 L 213.050781 307.554688 C 203.464844 307.554688 195.667969 315.351562 195.667969 324.9375 L 195.667969 423.40625 C 195.667969 462.4375 219.78125 496.5625 254.15625 509.894531 L 239.972656 524.070312 C 234.914062 529.136719 233.464844 536.398438 236.210938 543.015625 C 238.945312 549.632812 245.101562 553.742188 252.265625 553.742188 L 340.484375 553.742188 C 343.679688 553.742188 346.28125 551.148438 346.28125 547.945312 C 346.28125 544.746094 343.679688 542.15625 340.484375 542.15625 L 252.265625 542.15625 C 248.675781 542.15625 247.257812 539.417969 246.914062 538.574219 C 246.566406 537.738281 245.632812 534.804688 248.171875 532.265625 L 266.699219 513.734375 C 273.324219 515.261719 280.210938 516.089844 287.292969 516.089844 L 317.316406 516.089844 C 320.511719 516.089844 323.113281 513.492188 323.113281 510.292969 C 323.113281 507.097656 320.511719 504.503906 317.316406 504.503906 L 287.292969 504.503906 C 242.972656 504.503906 207.261719 467.726562 207.261719 423.414062 L 207.261719 324.9375 C 207.261719 321.746094 209.851562 319.148438 213.050781 319.148438 L 467.917969 319.148438 C 471.117188 319.148438 473.714844 321.722656 473.714844 324.9375 L 473.714844 417.640625 C 473.722656 420.832031 476.316406 423.414062 479.503906 423.414062 C 479.511719 423.414062 479.519531 423.414062 479.527344 423.414062 C 482.722656 423.398438 485.308594 420.792969 485.300781 417.59375 L 485.300781 324.9375 C 485.300781 315.351562 477.503906 307.5625 467.917969 307.5625 L 424.71875 307.5625 L 433.472656 292.398438 C 435.605469 288.695312 438.976562 285.796875 442.957031 284.25 C 449.382812 281.734375 454.816406 277.066406 458.257812 271.09375 L 478.277344 236.433594 C 481.582031 230.714844 482.457031 224.050781 480.746094 217.671875 C 479.035156 211.292969 474.949219 205.964844 469.230469 202.660156 L 441.117188 186.429688 C 435.398438 183.125 428.734375 182.246094 422.355469 183.953125 C 415.976562 185.664062 410.648438 189.757812 407.34375 195.476562 L 387.328125 230.136719 C 383.886719 236.109375 382.558594 243.15625 383.59375 249.972656 C 384.238281 254.195312 383.417969 258.558594 381.277344 262.261719 Z M 232.699219 296.261719 C 219.804688 283.367188 220.839844 268.179688 222.011719 261.839844 C 228.335938 260.691406 243.59375 259.671875 256.441406 272.519531 C 269.335938 285.414062 268.300781 300.59375 267.128906 306.933594 C 260.796875 308.085938 245.539062 309.113281 232.699219 296.261719 Z M 391.308594 268.050781 C 394.757812 262.078125 396.082031 255.039062 395.046875 248.222656 C 394.394531 244 395.222656 239.636719 397.363281 235.933594 L 417.375 201.273438 C 419.128906 198.230469 421.957031 196.058594 425.355469 195.148438 C 428.742188 194.234375 432.285156 194.703125 435.320312 196.457031 L 463.433594 212.6875 C 466.46875 214.445312 468.648438 217.273438 469.550781 220.667969 C 470.464844 224.058594 469.996094 227.601562 468.242188 230.636719 L 448.230469 265.304688 C 446.09375 269 442.726562 271.898438 438.742188 273.453125 C 432.324219 275.960938 426.886719 280.628906 423.4375 286.601562 L 411.339844 307.5625 L 368.5 307.5625 Z M 391.308594 268.050781 "/>
</g>
<g clip-path="url(#clip2)" clip-rule="nonzero">
<path style=" stroke:none;fill-rule:nonzero;fill:rgb(0%,0%,0%);fill-opacity:1;" d="M 534.152344 431.058594 C 532.441406 430.667969 500.082031 423.613281 467.359375 439.4375 C 457.308594 403.105469 428.875 384.589844 427.59375 383.769531 C 425.667969 382.550781 423.207031 382.558594 421.304688 383.808594 C 419.597656 384.929688 380.804688 410.925781 377.964844 460.804688 C 354.515625 451.621094 332.933594 456.160156 331.699219 456.433594 C 329.550781 456.910156 327.855469 458.558594 327.328125 460.691406 C 326.898438 462.414062 317.222656 503.1875 349.109375 532.394531 C 371.273438 552.699219 411.246094 553.703125 418.921875 553.703125 C 419.429688 553.703125 421.175781 553.726562 422.546875 553.726562 C 434.84375 553.726562 484.878906 552.113281 511.328125 526.945312 C 535.292969 504.136719 540.332031 475.378906 540.332031 455.269531 C 540.332031 443.140625 538.566406 435.660156 538.492188 435.351562 C 537.976562 433.210938 536.296875 431.550781 534.152344 431.058594 Z M 389.382812 465.949219 C 389.660156 427.179688 415.441406 403.128906 424.527344 395.84375 C 431.96875 401.648438 450.386719 418.355469 456.878906 445.332031 C 451.628906 448.746094 446.453125 452.824219 441.476562 457.730469 C 429.148438 469.882812 421.867188 483.269531 417.664062 495.972656 C 414.09375 489.308594 409.554688 483.199219 404.019531 477.75 C 399.3125 473.101562 394.375 469.382812 389.390625 466.402344 C 389.390625 466.25 389.382812 466.101562 389.382812 465.949219 Z M 337.894531 467.199219 C 347.667969 466.085938 374.839844 465.25 395.890625 485.996094 C 404.433594 494.40625 410.226562 504.621094 413.203125 516.335938 C 411.953125 526.96875 412.480469 536.03125 413.1875 541.949219 C 400.445312 541.296875 372.609375 538.214844 356.9375 523.855469 C 335.003906 503.769531 336.46875 476.957031 337.894531 467.199219 Z M 503.339844 518.558594 C 481.652344 539.203125 439.117188 541.820312 424.925781 542.101562 C 423.300781 529.621094 421.566406 493.617188 449.613281 465.980469 C 471.039062 444.859375 497.445312 440.847656 514.386719 440.847656 C 520.167969 440.847656 524.851562 441.316406 527.859375 441.730469 C 528.28125 444.699219 528.746094 449.351562 528.746094 455.269531 C 528.746094 473.109375 524.339844 498.578125 503.339844 518.558594 Z M 503.339844 518.558594 "/>
</g>
<path style=" stroke:none;fill-rule:nonzero;fill:rgb(0%,0%,0%);fill-opacity:1;" d="M 503.023438 458.320312 L 476.613281 483.527344 L 476.613281 472.648438 C 476.613281 469.453125 474.015625 466.855469 470.816406 466.855469 C 467.621094 466.855469 465.023438 469.453125 465.023438 472.648438 L 465.023438 494.59375 L 439.300781 519.140625 C 436.992188 521.347656 436.898438 525.019531 439.117188 527.335938 C 440.25 528.523438 441.777344 529.121094 443.300781 529.121094 C 444.742188 529.121094 446.183594 528.59375 447.304688 527.519531 L 511.023438 466.699219 C 513.335938 464.492188 513.421875 460.828125 511.214844 458.511719 C 509.003906 456.199219 505.332031 456.113281 503.023438 458.320312 Z M 503.023438 458.320312 "/>
<path style=" stroke:none;fill-rule:nonzero;fill:rgb(0%,0%,0%);fill-opacity:1;" d="M 348.410156 214.882812 C 346.753906 214.882812 344.886719 215.050781 342.890625 215.371094 C 343.214844 213.378906 343.382812 211.507812 343.382812 209.851562 C 343.382812 196.648438 332.988281 185.917969 320.214844 185.917969 C 307.433594 185.917969 297.046875 196.648438 297.046875 209.851562 C 297.046875 211.507812 297.214844 213.378906 297.535156 215.371094 C 295.542969 215.050781 293.664062 214.882812 292.007812 214.882812 C 278.8125 214.882812 268.082031 225.277344 268.082031 238.050781 C 268.082031 250.824219 278.8125 261.21875 292.007812 261.21875 C 293.664062 261.21875 295.535156 261.050781 297.535156 260.726562 C 297.214844 262.722656 297.046875 264.59375 297.046875 266.246094 C 297.046875 279.449219 307.433594 290.183594 320.214844 290.183594 C 332.988281 290.183594 343.382812 279.449219 343.382812 266.246094 C 343.382812 264.59375 343.214844 262.722656 342.890625 260.726562 C 344.886719 261.050781 346.753906 261.21875 348.410156 261.21875 C 361.605469 261.21875 372.347656 250.824219 372.347656 238.050781 C 372.347656 225.277344 361.605469 214.882812 348.410156 214.882812 Z M 348.410156 249.632812 C 345.507812 249.632812 341.035156 248.707031 336.757812 247.21875 C 334.65625 246.492188 332.328125 247.019531 330.753906 248.597656 C 329.183594 250.164062 328.648438 252.492188 329.382812 254.59375 C 330.871094 258.871094 331.796875 263.34375 331.796875 266.246094 C 331.796875 273.054688 326.601562 278.597656 320.214844 278.597656 C 313.820312 278.597656 308.628906 273.054688 308.628906 266.246094 C 308.628906 263.34375 309.558594 258.871094 311.042969 254.59375 C 311.773438 252.492188 311.234375 250.164062 309.671875 248.589844 C 308.558594 247.488281 307.082031 246.898438 305.570312 246.898438 C 304.933594 246.898438 304.289062 247.003906 303.667969 247.21875 C 299.390625 248.707031 294.921875 249.632812 292.007812 249.632812 C 285.199219 249.632812 279.664062 244.4375 279.664062 238.050781 C 279.664062 231.664062 285.199219 226.464844 292.007812 226.464844 C 294.921875 226.464844 299.390625 227.394531 303.667969 228.878906 C 305.761719 229.609375 308.09375 229.078125 309.671875 227.507812 C 311.234375 225.9375 311.773438 223.605469 311.042969 221.503906 C 309.558594 217.226562 308.628906 212.757812 308.628906 209.851562 C 308.628906 203.042969 313.820312 197.5 320.214844 197.5 C 326.601562 197.5 331.796875 203.042969 331.796875 209.851562 C 331.796875 212.757812 330.871094 217.226562 329.382812 221.503906 C 328.65625 223.605469 329.183594 225.9375 330.753906 227.507812 C 332.328125 229.078125 334.65625 229.617188 336.757812 228.878906 C 341.035156 227.394531 345.5 226.464844 348.410156 226.464844 C 355.21875 226.464844 360.761719 231.664062 360.761719 238.050781 C 360.761719 244.4375 355.21875 249.632812 348.410156 249.632812 Z M 348.410156 249.632812 "/>
</g>
</svg>
