<?xml version="1.0" encoding="UTF-8"?>
<svg xmlns="http://www.w3.org/2000/svg" xmlns:xlink="http://www.w3.org/1999/xlink" width="736px" height="736px" viewBox="0 0 736 736" version="1.1">
<defs>
<clipPath id="clip1">
  <path d="M 178.097656 333 L 577 333 L 577 521 L 178.097656 521 Z M 178.097656 333 "/>
</clipPath>
<clipPath id="clip2">
  <path d="M 424 173 L 584.367188 173 L 584.367188 333 L 424 333 Z M 424 173 "/>
</clipPath>
</defs>
<g id="surface1">
<rect x="0" y="0" width="736" height="736" style="fill:rgb(100%,100%,100%);fill-opacity:1;stroke:none;"/>
<g clip-path="url(#clip1)" clip-rule="nonzero">
<path style=" stroke:none;fill-rule:nonzero;fill:rgb(0%,0%,0%);fill-opacity:1;" d="M 474.503906 431.320312 L 565.441406 375.628906 C 571.042969 372.195312 574.898438 366.519531 576.027344 360.050781 C 577.15625 353.578125 575.4375 346.933594 571.328125 341.8125 C 564.011719 332.71875 551.066406 330.5625 541.191406 336.8125 L 472.519531 380.289062 C 469.167969 382.414062 465.6875 384.308594 462.15625 386.085938 C 462.90625 383.871094 463.335938 381.523438 463.335938 379.109375 C 463.335938 366.964844 453.40625 357.082031 441.210938 357.082031 L 389.121094 357.082031 C 377.199219 357.082031 365.238281 355.792969 353.570312 353.25 L 329.382812 347.96875 C 303.785156 342.4375 277.179688 348.3125 256.382812 364.082031 L 229.832031 384.199219 C 224.617188 377.960938 215.347656 376.855469 208.847656 381.832031 L 184.335938 400.613281 C 181.09375 403.089844 179.023438 406.679688 178.488281 410.710938 C 177.957031 414.75 179.03125 418.753906 181.515625 421.980469 L 252.714844 514.640625 C 255.722656 518.542969 260.261719 520.597656 264.84375 520.597656 C 268.089844 520.589844 271.363281 519.570312 274.121094 517.453125 L 298.632812 498.671875 C 301.875 496.195312 303.945312 492.605469 304.480469 488.574219 C 305.011719 484.535156 303.9375 480.53125 301.453125 477.304688 L 299.589844 474.882812 C 322.675781 465.128906 347.09375 460.152344 372.1875 460.152344 C 408.328125 460.152344 443.707031 450.179688 474.503906 431.320312 Z M 293.027344 491.378906 L 268.515625 510.15625 C 265.871094 512.1875 262.0625 511.6875 260.023438 509.035156 L 188.824219 416.382812 C 187.832031 415.105469 187.410156 413.515625 187.625 411.914062 C 187.832031 410.3125 188.660156 408.894531 189.941406 407.914062 L 214.453125 389.128906 C 215.546875 388.292969 216.84375 387.886719 218.132812 387.886719 C 219.949219 387.886719 221.75 388.699219 222.945312 390.25 L 225.316406 393.339844 C 225.332031 393.355469 225.332031 393.367188 225.339844 393.375 C 225.347656 393.390625 225.363281 393.390625 225.371094 393.40625 L 294.148438 482.90625 C 295.136719 484.1875 295.558594 485.769531 295.34375 487.371094 C 295.136719 488.972656 294.308594 490.390625 293.027344 491.378906 Z M 235.480469 391.460938 L 261.953125 371.402344 C 280.609375 357.257812 304.480469 351.984375 327.421875 356.960938 L 351.601562 362.234375 C 363.914062 364.925781 376.539062 366.28125 389.121094 366.28125 L 441.210938 366.28125 C 448.332031 366.28125 454.121094 372.03125 454.121094 379.109375 C 454.121094 384.230469 451.0625 388.867188 446.332031 390.921875 L 434.316406 396.128906 C 426.933594 397.816406 419.390625 398.84375 411.777344 399.125 L 348.847656 401.472656 C 346.3125 401.574219 344.324219 403.703125 344.417969 406.242188 C 344.507812 408.777344 346.601562 410.816406 349.195312 410.664062 L 412.113281 408.328125 C 435.28125 407.460938 457.875 400.453125 477.457031 388.054688 L 546.121094 344.585938 C 552.023438 340.84375 559.773438 342.125 564.136719 347.566406 C 566.597656 350.636719 567.625 354.605469 566.949219 358.476562 C 566.273438 362.34375 563.96875 365.738281 560.625 367.785156 L 469.691406 423.476562 C 440.34375 441.453125 406.625 450.953125 372.1875 450.953125 C 345.359375 450.953125 319.261719 456.34375 294.628906 466.960938 L 293.777344 467.320312 Z M 235.480469 391.460938 "/>
</g>
<path style=" stroke:none;fill-rule:nonzero;fill:rgb(0%,0%,0%);fill-opacity:1;" d="M 289.539062 269.46875 L 332.273438 312.125 C 333.171875 313.023438 334.351562 313.476562 335.523438 313.476562 C 336.703125 313.476562 337.886719 313.023438 338.78125 312.125 L 381.515625 269.46875 C 395.085938 255.914062 395.085938 233.855469 381.515625 220.300781 C 368.996094 207.789062 349.210938 206.832031 335.5625 217.410156 C 321.90625 206.785156 302.097656 207.75 289.554688 220.261719 C 282.976562 226.832031 279.359375 235.566406 279.359375 244.851562 C 279.359375 253.742188 282.675781 262.125 289.019531 268.839844 C 289.171875 269.0625 289.347656 269.269531 289.539062 269.46875 Z M 296.070312 226.773438 C 300.902344 221.941406 307.332031 219.28125 314.179688 219.28125 C 321.019531 219.28125 327.449219 221.941406 332.296875 226.78125 C 334.097656 228.582031 337.019531 228.574219 338.804688 226.789062 C 348.789062 216.835938 365.023438 216.84375 375 226.804688 C 384.988281 236.769531 384.988281 252.992188 375 262.960938 L 335.523438 302.375 L 296.445312 263.351562 C 296.332031 263.203125 296.203125 263.058594 296.070312 262.929688 C 291.234375 258.097656 288.574219 251.671875 288.574219 244.851562 C 288.574219 238.019531 291.234375 231.601562 296.070312 226.773438 Z M 296.070312 226.773438 "/>
<path style=" stroke:none;fill-rule:nonzero;fill:rgb(0%,0%,0%);fill-opacity:1;" d="M 335.539062 332.800781 C 379.5 332.800781 415.273438 297.089844 415.273438 253.199219 C 415.273438 209.300781 379.5 173.589844 335.539062 173.589844 C 291.570312 173.589844 255.796875 209.300781 255.796875 253.199219 C 255.796875 297.089844 291.570312 332.800781 335.539062 332.800781 Z M 335.539062 182.789062 C 374.425781 182.789062 406.058594 214.375 406.058594 253.199219 C 406.058594 292.023438 374.425781 323.609375 335.539062 323.609375 C 296.644531 323.609375 265.011719 292.023438 265.011719 253.199219 C 265.011719 214.375 296.644531 182.789062 335.539062 182.789062 Z M 335.539062 182.789062 "/>
<path style=" stroke:none;fill-rule:nonzero;fill:rgb(0%,0%,0%);fill-opacity:1;" d="M 565.699219 257.078125 C 565.417969 252.042969 562.527344 247.585938 557.121094 243.792969 C 558.914062 240.289062 560.585938 235.183594 558.777344 230.261719 C 557.296875 226.234375 553.953125 223.328125 548.804688 221.589844 C 548.796875 217.75 547.960938 212.199219 543.882812 208.511719 C 540.476562 205.4375 535.792969 204.433594 529.925781 205.511719 C 527.511719 203.082031 523.195312 199.59375 518.042969 199.210938 C 514.449219 198.972656 510.96875 200.253906 508.109375 203.011719 C 505.992188 205.058594 504.519531 207.714844 503.632812 210.617188 C 503.003906 209.539062 502.28125 208.496094 501.429688 207.542969 C 495.855469 201.289062 489.945312 198.445312 484.328125 199.339844 C 479.257812 200.136719 474.941406 203.863281 471.445312 210.417969 C 467.375 210.121094 460.949219 210.566406 456.3125 215.082031 C 452.195312 219.082031 450.667969 225.109375 451.765625 233.011719 C 448.394531 235.917969 442.855469 241.867188 443.277344 249.3125 C 443.5625 254.347656 446.4375 258.804688 451.851562 262.597656 C 450.054688 266.109375 448.378906 271.214844 450.195312 276.136719 C 451.675781 280.164062 455.015625 283.0625 460.160156 284.800781 C 460.175781 288.648438 461.003906 294.199219 465.089844 297.886719 C 468.496094 300.960938 473.179688 301.96875 479.042969 300.886719 C 481.460938 303.316406 485.773438 306.804688 490.925781 307.179688 C 491.242188 307.203125 491.546875 307.21875 491.863281 307.21875 C 495.152344 307.21875 498.25 305.898438 500.855469 303.386719 C 502.972656 301.339844 504.453125 298.6875 505.332031 295.78125 C 505.96875 296.859375 506.691406 297.894531 507.539062 298.847656 C 512.449219 304.359375 517.613281 307.21875 522.613281 307.21875 C 523.289062 307.21875 523.976562 307.164062 524.652344 307.058594 C 529.714844 306.253906 534.035156 302.527344 537.523438 295.980469 C 541.566406 296.253906 548.019531 295.824219 552.660156 291.316406 C 556.777344 287.316406 558.300781 281.289062 557.207031 273.386719 C 560.578125 270.472656 566.113281 264.53125 565.699219 257.078125 Z M 497.046875 290.121094 C 497.046875 292.75 496.101562 295.183594 494.453125 296.777344 C 493.226562 297.957031 492.300781 298.035156 491.625 298.011719 C 488.902344 297.820312 485.523438 294.539062 484.320312 292.988281 C 483.429688 291.832031 482.074219 291.1875 480.660156 291.1875 C 480.246094 291.1875 479.824219 291.242188 479.417969 291.355469 C 476.707031 292.117188 473.085938 292.691406 471.285156 291.074219 C 469.246094 289.253906 469.214844 284.617188 469.53125 282.402344 C 469.90625 281.375 471.492188 277.609375 474.710938 276.269531 C 477.027344 275.300781 480.023438 275.753906 483.605469 277.609375 C 485.882812 278.773438 488.648438 277.894531 489.816406 275.640625 C 490.980469 273.386719 490.097656 270.609375 487.84375 269.445312 C 481.679688 266.253906 476.039062 265.710938 471.0625 267.820312 C 466.714844 269.667969 464.046875 273.078125 462.476562 275.847656 C 460.851562 275.210938 459.332031 274.296875 458.84375 272.980469 C 457.851562 270.296875 460.429688 265.734375 461.824219 263.964844 C 462.683594 262.890625 463.011719 261.496094 462.730469 260.160156 C 462.453125 258.820312 461.585938 257.667969 460.375 257.03125 C 456.886719 255.183594 452.679688 252.265625 452.472656 248.8125 C 452.28125 245.570312 455.421875 242.074219 457.707031 240.066406 C 460.921875 241.015625 466.625 242.414062 472.65625 242.414062 C 472.910156 242.414062 473.171875 242.375 473.425781 242.375 C 476.117188 245.546875 479.433594 250.953125 477.640625 254.203125 C 476.40625 256.425781 477.226562 259.226562 479.449219 260.453125 C 480.15625 260.84375 480.914062 261.019531 481.664062 261.019531 C 483.292969 261.019531 484.871094 260.160156 485.707031 258.644531 C 489.300781 252.125 486.527344 245.210938 483.429688 240.417969 C 484.304688 240.050781 485.167969 239.660156 485.976562 239.152344 C 490.644531 236.269531 493.496094 231.503906 494.207031 225.355469 C 494.507812 222.832031 492.691406 220.546875 490.167969 220.253906 C 487.636719 219.949219 485.355469 221.765625 485.0625 224.289062 C 484.539062 228.75 482.570312 230.445312 481.144531 231.328125 C 475.839844 234.609375 466.257812 232.90625 460.859375 231.386719 C 460.398438 227.769531 460.542969 223.828125 462.722656 221.683594 C 465.511719 218.953125 471.179688 219.472656 473.101562 219.902344 C 475.300781 220.410156 477.480469 219.289062 478.371094 217.265625 C 480.683594 211.953125 483.320312 208.808594 485.773438 208.417969 C 488.035156 208.058594 491.257812 209.96875 494.546875 213.65625 C 496.15625 215.472656 497.046875 217.792969 497.046875 220.203125 Z M 546.25 284.710938 C 543.460938 287.445312 537.800781 286.925781 535.871094 286.488281 C 533.675781 285.980469 531.484375 287.101562 530.601562 289.132812 C 528.285156 294.445312 525.648438 297.582031 523.195312 297.972656 C 520.917969 298.308594 517.707031 296.433594 514.417969 292.738281 C 512.808594 290.925781 511.925781 288.605469 511.925781 286.1875 L 511.925781 216.277344 C 511.925781 213.640625 512.871094 211.214844 514.519531 209.621094 C 515.605469 208.570312 516.457031 208.371094 517.09375 208.371094 C 517.1875 208.371094 517.269531 208.378906 517.347656 208.378906 C 520.066406 208.578125 523.449219 211.859375 524.652344 213.410156 C 525.804688 214.898438 527.75 215.539062 529.550781 215.042969 C 532.273438 214.285156 535.890625 213.707031 537.695312 215.316406 C 539.71875 217.144531 539.75 221.78125 539.441406 223.996094 C 539.058594 225.023438 537.480469 228.789062 534.25 230.121094 C 531.953125 231.097656 528.945312 230.644531 525.359375 228.789062 C 523.082031 227.617188 520.320312 228.503906 519.15625 230.75 C 517.984375 233.011719 518.863281 235.789062 521.125 236.953125 C 524.835938 238.871094 528.355469 239.835938 531.660156 239.835938 C 533.835938 239.835938 535.921875 239.414062 537.902344 238.570312 C 542.246094 236.730469 544.914062 233.320312 546.488281 230.550781 C 548.113281 231.179688 549.632812 232.09375 550.121094 233.417969 C 551.117188 236.101562 548.542969 240.65625 547.148438 242.433594 C 546.289062 243.507812 545.957031 244.894531 546.242188 246.238281 C 546.519531 247.578125 547.382812 248.722656 548.597656 249.367188 C 552.085938 251.207031 556.292969 254.132812 556.5 257.585938 C 556.691406 260.820312 553.554688 264.316406 551.273438 266.324219 C 547.914062 265.335938 541.839844 263.878906 535.53125 264.007812 C 532.847656 260.835938 529.535156 255.4375 531.332031 252.1875 C 532.558594 249.964844 531.746094 247.164062 529.511719 245.9375 C 527.296875 244.71875 524.484375 245.523438 523.257812 247.757812 C 519.675781 254.265625 522.4375 261.15625 525.527344 265.957031 C 524.652344 266.324219 523.800781 266.738281 522.988281 267.238281 C 518.320312 270.121094 515.476562 274.894531 514.753906 281.042969 C 514.464844 283.566406 516.273438 285.851562 518.804688 286.144531 C 518.980469 286.164062 519.164062 286.171875 519.339844 286.171875 C 521.648438 286.171875 523.632812 284.449219 523.910156 282.109375 C 524.429688 277.648438 526.394531 275.953125 527.828125 275.066406 C 533.125 271.789062 542.714844 273.484375 548.113281 275.003906 C 548.574219 278.621094 548.433594 282.570312 546.25 284.710938 Z M 546.25 284.710938 "/>
<g clip-path="url(#clip2)" clip-rule="nonzero">
<path style=" stroke:none;fill-rule:nonzero;fill:rgb(0%,0%,0%);fill-opacity:1;" d="M 504.480469 173.589844 C 460.519531 173.589844 424.75 209.300781 424.75 253.199219 C 424.75 297.089844 460.519531 332.800781 504.480469 332.800781 C 548.449219 332.800781 584.222656 297.089844 584.222656 253.199219 C 584.222656 209.300781 548.449219 173.589844 504.480469 173.589844 Z M 504.480469 323.609375 C 465.597656 323.609375 433.957031 292.023438 433.957031 253.199219 C 433.957031 214.375 465.597656 182.789062 504.480469 182.789062 C 543.375 182.789062 575.007812 214.375 575.007812 253.199219 C 575.007812 292.023438 543.375 323.609375 504.480469 323.609375 Z M 504.480469 323.609375 "/>
</g>
</g>
</svg>
