<svg xmlns="http://www.w3.org/2000/svg" xmlns:xlink="http://www.w3.org/1999/xlink" width="500" zoomAndPan="magnify" viewBox="0 0 375 374.999991" height="500" preserveAspectRatio="xMidYMid meet" version="1.0"><defs><g/></defs><rect x="-37.5" width="450" fill="#ffffff" y="-37.499999" height="449.999989" fill-opacity="1"/><rect x="-37.5" width="450" fill="#e4f4ec" y="-37.499999" height="449.999989" fill-opacity="1"/><g fill="#7d6f52" fill-opacity="1"><g transform="translate(26.593593, 228.699586)"><g><path d="M 91.5625 0 L 53.3125 0 L 53.3125 -45.46875 C 53.3125 -47.914062 52.695312 -49.753906 51.46875 -50.984375 C 50.238281 -52.210938 48.796875 -52.828125 47.140625 -52.828125 C 45.484375 -52.828125 44.039062 -52.238281 42.8125 -51.0625 C 41.59375 -49.882812 40.984375 -48.070312 40.984375 -45.625 L 40.984375 0 L 1.59375 0 L 1.59375 -47.21875 C 1.59375 -55.65625 2.898438 -62.753906 5.515625 -68.515625 C 8.128906 -74.273438 11.648438 -78.914062 16.078125 -82.4375 C 20.515625 -85.957031 25.425781 -88.519531 30.8125 -90.125 C 36.207031 -91.726562 41.675781 -92.53125 47.21875 -92.53125 C 51.707031 -92.53125 56.140625 -91.753906 60.515625 -90.203125 C 64.890625 -88.660156 68.890625 -86.070312 72.515625 -82.4375 C 75.609375 -85.851562 79.421875 -88.359375 83.953125 -89.953125 C 88.492188 -91.554688 92.953125 -92.414062 97.328125 -92.53125 C 102.984375 -92.53125 108.53125 -91.703125 113.96875 -90.046875 C 119.414062 -88.390625 124.351562 -85.773438 128.78125 -82.203125 C 133.207031 -78.628906 136.753906 -73.957031 139.421875 -68.1875 C 142.097656 -62.425781 143.4375 -55.4375 143.4375 -47.21875 L 143.4375 0 L 104.046875 0 L 104.046875 -45.625 C 104.046875 -48.070312 103.40625 -49.882812 102.125 -51.0625 C 100.84375 -52.238281 99.398438 -52.828125 97.796875 -52.828125 C 96.203125 -52.828125 94.765625 -52.210938 93.484375 -50.984375 C 92.203125 -49.753906 91.5625 -47.914062 91.5625 -45.46875 Z M 91.5625 0 "/></g></g></g><path stroke-linecap="butt" transform="matrix(0.913804, 0, 0, 0.913804, 99.149252, 22.60509)" fill="none" stroke-linejoin="miter" d="M 84.446102 172.267149 C 69.03148 172.267149 56.972509 168.223269 48.273464 160.131234 C 39.570145 152.039199 35.22276 140.223887 35.22276 124.676749 C 35.22276 109.155259 39.570145 97.352771 48.273464 89.260736 C 56.972509 81.143052 69.03148 77.086348 84.446102 77.086348 C 99.779504 77.086348 110.838191 81.078932 117.630713 89.064099 C 124.423235 97.044992 127.817359 106.966605 127.817359 118.828939 L 127.817359 130.567306 L 75.011806 130.567306 L 75.011806 131.520567 C 75.011806 135.551623 76.208726 138.52255 78.594017 140.433348 C 80.983583 142.318497 84.950518 143.258934 90.494823 143.258934 C 97.124906 143.258934 103.425836 142.780166 109.393338 141.826905 C 115.365114 140.84372 120.575992 139.586954 125.034519 138.048057 L 125.034519 164.149466 C 121.238573 166.19278 115.668619 168.065105 108.320384 169.762167 C 100.997798 171.43358 93.038278 172.267149 84.446102 172.267149 Z M 93.914595 112.617778 L 93.914595 110.668508 C 93.914595 106.983704 93.119498 104.329106 91.529304 102.708989 C 89.960484 101.067498 87.600841 100.242478 84.446102 100.242478 C 81.312736 100.242478 78.953093 101.093147 77.362899 102.790209 C 75.798353 104.461622 75.011806 107.086297 75.011806 110.668508 L 75.011806 112.617778 Z M 93.914595 112.617778 " stroke="#e4f4ec" stroke-width="8.964945" stroke-opacity="1" stroke-miterlimit="4"/><g fill="#7d6f52" fill-opacity="1"><g transform="translate(129.261937, 177.951708)"><g><path d="M 47.0625 2.078125 C 32.96875 2.078125 21.945312 -1.617188 14 -9.015625 C 6.050781 -16.410156 2.078125 -27.207031 2.078125 -41.40625 C 2.078125 -55.601562 6.050781 -66.398438 14 -73.796875 C 21.945312 -81.191406 32.96875 -84.890625 47.0625 -84.890625 C 61.0625 -84.890625 71.164062 -81.238281 77.375 -73.9375 C 83.582031 -66.644531 86.6875 -57.585938 86.6875 -46.765625 L 86.6875 -36.046875 L 38.421875 -36.046875 L 38.421875 -35.15625 C 38.421875 -31.476562 39.515625 -28.769531 41.703125 -27.03125 C 43.890625 -25.289062 47.515625 -24.421875 52.578125 -24.421875 C 58.628906 -24.421875 64.382812 -24.867188 69.84375 -25.765625 C 75.3125 -26.660156 80.082031 -27.800781 84.15625 -29.1875 L 84.15625 -5.359375 C 80.675781 -3.472656 75.582031 -1.757812 68.875 -0.21875 C 62.175781 1.3125 54.90625 2.078125 47.0625 2.078125 Z M 55.703125 -52.421875 L 55.703125 -54.21875 C 55.703125 -57.59375 54.984375 -60.023438 53.546875 -61.515625 C 52.109375 -63.003906 49.945312 -63.75 47.0625 -63.75 C 44.1875 -63.75 42.023438 -62.976562 40.578125 -61.4375 C 39.140625 -59.894531 38.421875 -57.488281 38.421875 -54.21875 L 38.421875 -52.421875 Z M 55.703125 -52.421875 "/></g></g></g><path stroke-linecap="butt" transform="matrix(0.982171, 0, 0, 0.982171, 170.500863, 109.866115)" fill="none" stroke-linejoin="miter" d="M 86.84038 40.941962 L 86.84038 90.771783 C 86.84038 95.600053 85.921656 100.149923 84.088186 104.417414 C 82.270624 108.684905 79.741151 112.439343 76.49579 115.684704 C 73.250429 118.930066 69.515877 121.47147 65.28418 123.30494 C 61.05646 125.118524 56.486705 126.029294 51.582869 126.029294 C 46.754598 126.029294 42.204729 125.118524 37.937237 123.30494 C 33.669746 121.47147 29.931217 118.930066 26.725627 115.684704 C 23.520037 112.439343 21.01045 108.684905 19.192889 104.417414 C 17.379305 100.149923 16.472512 95.600053 16.472512 90.771783 C 16.472512 85.867946 17.379305 81.298191 19.192889 77.070471 C 21.01045 72.838774 23.520037 69.104223 26.725627 65.858861 C 29.931217 62.6135 33.669746 60.084027 37.937237 58.266465 C 42.204729 56.452881 46.754598 55.546089 51.582869 55.546089 L 55.985583 55.546089 L 55.985583 84.718547 L 51.582869 84.718547 C 49.920416 84.718547 48.512502 85.315121 47.355149 86.512246 C 46.213704 87.689485 45.644971 89.10933 45.644971 90.771783 C 45.644971 92.434235 46.213704 93.862035 47.355149 95.05916 C 48.512502 96.236399 49.920416 96.825018 51.582869 96.825018 C 53.320887 96.825018 54.760618 96.236399 55.898086 95.05916 C 57.059416 93.862035 57.636104 92.434235 57.636104 90.771783 L 57.636104 40.941962 Z M 86.84038 40.941962 " stroke="#e4f4ec" stroke-width="8.900025" stroke-opacity="1" stroke-miterlimit="4"/><g fill="#7d6f52" fill-opacity="1"><g transform="translate(185.73986, 231.655324)"><g><path d="M 70.046875 -81.578125 L 70.046875 -32.640625 C 70.046875 -27.898438 69.148438 -23.429688 67.359375 -19.234375 C 65.578125 -15.035156 63.09375 -11.34375 59.90625 -8.15625 C 56.71875 -4.96875 53.046875 -2.476562 48.890625 -0.6875 C 44.734375 1.09375 40.25 1.984375 35.4375 1.984375 C 30.695312 1.984375 26.226562 1.09375 22.03125 -0.6875 C 17.832031 -2.476562 14.160156 -4.96875 11.015625 -8.15625 C 7.867188 -11.34375 5.398438 -15.035156 3.609375 -19.234375 C 1.828125 -23.429688 0.9375 -27.898438 0.9375 -32.640625 C 0.9375 -37.453125 1.828125 -41.9375 3.609375 -46.09375 C 5.398438 -50.25 7.867188 -53.921875 11.015625 -57.109375 C 14.160156 -60.296875 17.832031 -62.78125 22.03125 -64.5625 C 26.226562 -66.351562 30.695312 -67.25 35.4375 -67.25 L 39.75 -67.25 L 39.75 -38.578125 L 35.4375 -38.578125 C 33.800781 -38.578125 32.421875 -37.992188 31.296875 -36.828125 C 30.171875 -35.660156 29.609375 -34.265625 29.609375 -32.640625 C 29.609375 -31.003906 30.171875 -29.601562 31.296875 -28.4375 C 32.421875 -27.269531 33.800781 -26.6875 35.4375 -26.6875 C 37.144531 -26.6875 38.5625 -27.269531 39.6875 -28.4375 C 40.8125 -29.601562 41.375 -31.003906 41.375 -32.640625 L 41.375 -81.578125 Z M 70.046875 -81.578125 "/></g></g></g><g fill="#7d6f52" fill-opacity="1"><g transform="translate(266.781138, 231.655324)"><g><path d="M 1.171875 -65.375 L 29.84375 -65.375 L 29.84375 0 L 1.171875 0 Z M 1.171875 -65.375 "/></g></g></g><g fill="#7d6f52" fill-opacity="1"><g transform="translate(238.242657, 135.813422)"><g><path d="M 5.671875 -12.34375 C 6.691406 -12.144531 7.507812 -11.578125 8.125 -10.640625 C 8.96875 -9.390625 9.132812 -8.097656 8.625 -6.765625 C 8.082031 -5.421875 7.023438 -4.226562 5.453125 -3.1875 C 5.328125 -3.101562 5.203125 -3.023438 5.078125 -2.953125 C 4.953125 -2.878906 4.835938 -2.804688 4.734375 -2.734375 L 4.625 -2.828125 C 5.195312 -3.585938 5.566406 -4.21875 5.734375 -4.71875 C 5.910156 -5.226562 6.003906 -5.597656 6.015625 -5.828125 C 6.015625 -5.828125 6.015625 -5.835938 6.015625 -5.859375 C 6.003906 -5.941406 6 -6.015625 6 -6.078125 C 6 -6.140625 6 -6.171875 6 -6.171875 C 5.945312 -6.441406 5.816406 -6.734375 5.609375 -7.046875 C 5.398438 -7.359375 5.160156 -7.566406 4.890625 -7.671875 C 4.585938 -7.773438 4.257812 -7.804688 3.90625 -7.765625 C 3.519531 -7.710938 3.101562 -7.625 2.65625 -7.5 C 2.21875 -7.351562 1.703125 -7.191406 1.109375 -7.015625 C 0.484375 -6.816406 -0.0664062 -6.679688 -0.546875 -6.609375 C -1.015625 -6.484375 -1.5625 -6.46875 -2.1875 -6.5625 C -2.71875 -6.632812 -3.234375 -6.8125 -3.734375 -7.09375 C -4.210938 -7.375 -4.648438 -7.804688 -5.046875 -8.390625 C -5.753906 -9.460938 -5.875 -10.632812 -5.40625 -11.90625 C -4.9375 -13.175781 -3.972656 -14.300781 -2.515625 -15.28125 C -2.296875 -15.425781 -2.078125 -15.550781 -1.859375 -15.65625 C -1.640625 -15.757812 -1.414062 -15.867188 -1.1875 -15.984375 L -1.09375 -15.84375 C -1.632812 -15.320312 -2.015625 -14.835938 -2.234375 -14.390625 C -2.453125 -13.941406 -2.578125 -13.570312 -2.609375 -13.28125 C -2.648438 -13 -2.671875 -12.859375 -2.671875 -12.859375 C -2.703125 -12.535156 -2.609375 -12.21875 -2.390625 -11.90625 C -2.015625 -11.332031 -1.503906 -11.078125 -0.859375 -11.140625 C -0.179688 -11.210938 0.671875 -11.421875 1.703125 -11.765625 C 3.296875 -12.335938 4.617188 -12.53125 5.671875 -12.34375 Z M 0.109375 -5.828125 C 0.679688 -6.210938 1.3125 -6.332031 2 -6.1875 C 2.6875 -6.050781 3.222656 -5.695312 3.609375 -5.125 C 3.992188 -4.53125 4.113281 -3.894531 3.96875 -3.21875 C 3.832031 -2.539062 3.476562 -2.007812 2.90625 -1.625 C 2.320312 -1.226562 1.6875 -1.097656 1 -1.234375 C 0.320312 -1.367188 -0.207031 -1.734375 -0.59375 -2.328125 C -0.976562 -2.898438 -1.101562 -3.523438 -0.96875 -4.203125 C -0.832031 -4.890625 -0.472656 -5.429688 0.109375 -5.828125 Z M 3.1875 -13.015625 C 2.65625 -12.648438 2.066406 -12.53125 1.421875 -12.65625 C 0.785156 -12.789062 0.296875 -13.117188 -0.046875 -13.640625 C -0.410156 -14.179688 -0.523438 -14.769531 -0.390625 -15.40625 C -0.265625 -16.039062 0.0625 -16.539062 0.59375 -16.90625 C 1.144531 -17.269531 1.734375 -17.378906 2.359375 -17.234375 C 2.984375 -17.097656 3.476562 -16.757812 3.84375 -16.21875 C 4.1875 -15.695312 4.300781 -15.125 4.1875 -14.5 C 4.070312 -13.875 3.738281 -13.378906 3.1875 -13.015625 Z M 3.1875 -13.015625 "/></g></g></g><g fill="#7d6f52" fill-opacity="1"><g transform="translate(253.451619, 126.664804)"><g><path d="M 7.59375 -3.96875 C 7.84375 -3.976562 8.070312 -4.007812 8.28125 -4.0625 L 8.625 -3.125 L 0.4375 -0.21875 L 0.09375 -1.15625 C 0.332031 -1.257812 0.546875 -1.359375 0.734375 -1.453125 C 0.929688 -1.554688 1.101562 -1.664062 1.25 -1.78125 C 1.476562 -1.988281 1.625 -2.210938 1.6875 -2.453125 C 1.738281 -2.671875 1.707031 -2.941406 1.59375 -3.265625 L -1.078125 -10.796875 C -1.191406 -11.109375 -1.367188 -11.351562 -1.609375 -11.53125 C -1.796875 -11.707031 -2.023438 -11.832031 -2.296875 -11.90625 C -2.503906 -11.945312 -2.773438 -11.960938 -3.109375 -11.953125 C -3.460938 -11.921875 -3.773438 -11.878906 -4.046875 -11.828125 L -4.375 -12.765625 L 1.859375 -15.34375 L 2.125 -15.21875 L 5.765625 -4.921875 C 5.867188 -4.640625 6.019531 -4.414062 6.21875 -4.25 C 6.4375 -4.082031 6.6875 -3.988281 6.96875 -3.96875 C 7.164062 -3.957031 7.375 -3.957031 7.59375 -3.96875 Z M -1.25 -16.828125 C -1.90625 -16.597656 -2.546875 -16.632812 -3.171875 -16.9375 C -3.804688 -17.25 -4.238281 -17.726562 -4.46875 -18.375 C -4.707031 -19.039062 -4.675781 -19.6875 -4.375 -20.3125 C -4.070312 -20.9375 -3.59375 -21.363281 -2.9375 -21.59375 C -2.269531 -21.820312 -1.625 -21.789062 -1 -21.5 C -0.382812 -21.207031 0.0390625 -20.726562 0.28125 -20.0625 C 0.507812 -19.414062 0.476562 -18.769531 0.1875 -18.125 C -0.101562 -17.488281 -0.582031 -17.054688 -1.25 -16.828125 Z M -1.25 -16.828125 "/></g></g></g><g fill="#7d6f52" fill-opacity="1"><g transform="translate(266.34841, 122.060729)"><g><path d="M 7.421875 -1.765625 C 7.566406 -1.691406 7.734375 -1.625 7.921875 -1.5625 C 8.109375 -1.507812 8.316406 -1.472656 8.546875 -1.453125 L 8.59375 -0.453125 L 0.375 0.015625 L 0.328125 -0.984375 C 0.566406 -1.023438 0.789062 -1.070312 1 -1.125 C 1.226562 -1.15625 1.425781 -1.210938 1.59375 -1.296875 C 1.875 -1.398438 2.066406 -1.5625 2.171875 -1.78125 C 2.273438 -2.007812 2.316406 -2.296875 2.296875 -2.640625 L 1.859375 -10.625 C 1.835938 -10.90625 1.734375 -11.1875 1.546875 -11.46875 C 1.378906 -11.71875 1.1875 -11.925781 0.96875 -12.09375 C 0.789062 -12.175781 0.570312 -12.25 0.3125 -12.3125 C 0.0625 -12.375 -0.210938 -12.410156 -0.515625 -12.421875 L -0.578125 -13.421875 L 5.953125 -14.15625 L 6.171875 -13.96875 L 6.78125 -3.03125 C 6.789062 -2.707031 6.84375 -2.4375 6.9375 -2.21875 C 7.050781 -2.019531 7.210938 -1.867188 7.421875 -1.765625 Z M 17.6875 -2.109375 C 17.894531 -2.054688 18.144531 -2.019531 18.4375 -2 L 18.484375 -1 L 10.328125 -0.546875 L 10.28125 -1.546875 C 10.46875 -1.597656 10.675781 -1.640625 10.90625 -1.671875 C 11.113281 -1.703125 11.296875 -1.757812 11.453125 -1.84375 C 11.628906 -1.925781 11.742188 -2.082031 11.796875 -2.3125 C 11.835938 -2.539062 11.847656 -2.828125 11.828125 -3.171875 L 11.46875 -9.578125 C 11.414062 -10.515625 11.207031 -11.207031 10.84375 -11.65625 C 10.488281 -12.101562 9.992188 -12.3125 9.359375 -12.28125 C 8.960938 -12.257812 8.613281 -12.179688 8.3125 -12.046875 C 8.0625 -11.898438 7.8125 -11.738281 7.5625 -11.5625 L 7.359375 -11.65625 L 7.296875 -12.8125 C 7.660156 -13.15625 8 -13.441406 8.3125 -13.671875 C 8.664062 -13.921875 9.113281 -14.140625 9.65625 -14.328125 C 10.195312 -14.503906 10.785156 -14.609375 11.421875 -14.640625 C 12.796875 -14.722656 13.875 -14.378906 14.65625 -13.609375 C 15.445312 -12.847656 15.882812 -11.710938 15.96875 -10.203125 L 16.34375 -3.53125 C 16.363281 -3.1875 16.4375 -2.910156 16.5625 -2.703125 C 16.664062 -2.515625 16.851562 -2.367188 17.125 -2.265625 C 17.269531 -2.222656 17.457031 -2.171875 17.6875 -2.109375 Z M 17.6875 -2.109375 "/></g></g></g><g fill="#7d6f52" fill-opacity="1"><g transform="translate(288.991686, 121.779306)"><g><path d="M 13.9375 -0.640625 L 14.75 0.3125 C 14.320312 0.769531 13.863281 1.171875 13.375 1.515625 C 12.863281 1.847656 12.296875 2.117188 11.671875 2.328125 C 11.015625 2.535156 10.375 2.65625 9.75 2.6875 C 9.132812 2.707031 8.453125 2.617188 7.703125 2.421875 C 6.460938 2.078125 5.414062 1.597656 4.5625 0.984375 C 3.726562 0.378906 3.09375 -0.320312 2.65625 -1.125 C 2.207031 -1.914062 1.945312 -2.78125 1.875 -3.71875 C 1.8125 -4.664062 1.914062 -5.632812 2.1875 -6.625 C 2.4375 -7.550781 2.863281 -8.375 3.46875 -9.09375 C 4.0625 -9.820312 4.753906 -10.414062 5.546875 -10.875 C 6.367188 -11.34375 7.3125 -11.640625 8.375 -11.765625 C 9.34375 -11.878906 10.375 -11.804688 11.46875 -11.546875 L 11.453125 -11.359375 C 11.222656 -11.234375 10.910156 -11.039062 10.515625 -10.78125 C 10.117188 -10.53125 9.722656 -10.226562 9.328125 -9.875 C 8.941406 -9.53125 8.640625 -9.148438 8.421875 -8.734375 C 8.273438 -8.515625 8.144531 -8.300781 8.03125 -8.09375 C 7.664062 -7.40625 7.335938 -6.535156 7.046875 -5.484375 C 6.617188 -3.910156 6.644531 -2.535156 7.125 -1.359375 C 7.59375 -0.191406 8.34375 0.53125 9.375 0.8125 C 10.351562 1.070312 11.191406 1.054688 11.890625 0.765625 C 12.609375 0.492188 13.289062 0.0234375 13.9375 -0.640625 Z M 11.59375 -8.078125 C 11.757812 -8.484375 11.867188 -8.847656 11.921875 -9.171875 C 11.972656 -9.492188 12 -9.742188 12 -9.921875 L 12.203125 -10.296875 L 13.296875 -10.890625 C 14.117188 -10.578125 14.722656 -10.207031 15.109375 -9.78125 C 15.492188 -9.351562 15.742188 -8.984375 15.859375 -8.671875 C 15.984375 -8.359375 16.046875 -8.203125 16.046875 -8.203125 C 16.203125 -7.742188 16.21875 -7.296875 16.09375 -6.859375 C 15.925781 -6.222656 15.5625 -5.742188 15 -5.421875 C 14.4375 -5.097656 13.847656 -5.019531 13.234375 -5.1875 C 12.609375 -5.351562 12.132812 -5.71875 11.8125 -6.28125 C 11.5 -6.84375 11.425781 -7.441406 11.59375 -8.078125 Z M 11.59375 -8.078125 "/></g></g></g><g fill="#7d6f52" fill-opacity="1"><g transform="translate(307.00026, 127.252849)"><g><path d="M 9.75 -3.265625 C 10.3125 -3.085938 10.816406 -2.941406 11.265625 -2.828125 L 11.421875 -2.5625 L 10.90625 -1.75 C 10.601562 -1.800781 10.316406 -1.84375 10.046875 -1.875 C 9.503906 -1.988281 9.03125 -2.023438 8.625 -1.984375 C 8.207031 -1.929688 7.804688 -1.785156 7.421875 -1.546875 C 7.035156 -1.328125 6.703125 -0.992188 6.421875 -0.546875 C 6.035156 0.0546875 5.894531 0.59375 6 1.0625 C 6.09375 1.507812 6.34375 1.859375 6.75 2.109375 C 7.164062 2.378906 7.566406 2.519531 7.953125 2.53125 L 8.0625 2.703125 L 7.515625 3.5625 C 7.460938 3.570312 7.414062 3.578125 7.375 3.578125 C 7.34375 3.578125 7.316406 3.582031 7.296875 3.59375 C 6.929688 3.644531 6.5625 3.640625 6.1875 3.578125 C 5.726562 3.515625 5.300781 3.425781 4.90625 3.3125 C 4.507812 3.164062 4.015625 2.898438 3.421875 2.515625 C 2.515625 1.941406 1.910156 1.1875 1.609375 0.25 C 1.316406 -0.6875 1.453125 -1.585938 2.015625 -2.453125 C 2.328125 -2.953125 2.671875 -3.332031 3.046875 -3.59375 C 3.398438 -3.863281 3.796875 -4.0625 4.234375 -4.1875 C 4.617188 -4.257812 5.023438 -4.28125 5.453125 -4.25 C 5.847656 -4.21875 6.269531 -4.15625 6.71875 -4.0625 C 7.582031 -3.882812 8.59375 -3.617188 9.75 -3.265625 Z M 7.5 -5.234375 C 6.945312 -5.585938 6.601562 -6.078125 6.46875 -6.703125 C 6.34375 -7.335938 6.457031 -7.929688 6.8125 -8.484375 C 7.007812 -8.796875 7.269531 -9.046875 7.59375 -9.234375 C 7.914062 -9.421875 8.257812 -9.519531 8.625 -9.53125 L 8.640625 -9.5625 C 8.640625 -9.5625 8.863281 -9.550781 9.3125 -9.53125 C 9.769531 -9.507812 10.414062 -9.375 11.25 -9.125 C 12.09375 -8.875 13.097656 -8.390625 14.265625 -7.671875 L 14.40625 -7.359375 L 14.15625 -6.96875 C 14.15625 -6.96875 14.039062 -7 13.8125 -7.0625 C 13.582031 -7.125 13.273438 -7.15625 12.890625 -7.15625 C 12.515625 -7.15625 12.140625 -7.078125 11.765625 -6.921875 C 11.390625 -6.765625 11.054688 -6.460938 10.765625 -6.015625 L 10.75 -6.015625 C 10.75 -6.015625 10.75 -6.007812 10.75 -6 C 10.757812 -6 10.757812 -5.988281 10.75 -5.96875 C 10.394531 -5.414062 9.898438 -5.066406 9.265625 -4.921875 C 8.628906 -4.785156 8.039062 -4.890625 7.5 -5.234375 Z M 13.328125 6.78125 C 13.609375 6.96875 13.863281 7.132812 14.09375 7.28125 L 13.546875 8.125 C 13.117188 8.070312 12.628906 7.953125 12.078125 7.765625 C 11.546875 7.597656 11.023438 7.351562 10.515625 7.03125 C 9.566406 6.414062 8.957031 5.828125 8.6875 5.265625 C 8.414062 4.691406 8.367188 4.085938 8.546875 3.453125 L 12.578125 -2.984375 L 15.171875 -7.046875 C 15.242188 -6.972656 15.320312 -6.898438 15.40625 -6.828125 C 15.5 -6.765625 15.597656 -6.703125 15.703125 -6.640625 C 16.265625 -6.128906 16.710938 -5.582031 17.046875 -5 C 17.335938 -4.425781 17.460938 -3.785156 17.421875 -3.078125 C 17.359375 -2.398438 17.066406 -1.648438 16.546875 -0.828125 C 15.992188 0.0351562 15.316406 1.066406 14.515625 2.265625 C 13.710938 3.441406 13.195312 4.210938 12.96875 4.578125 C 12.738281 4.929688 12.613281 5.25 12.59375 5.53125 C 12.5625 5.78125 12.625 6.023438 12.78125 6.265625 C 12.875 6.421875 13.054688 6.59375 13.328125 6.78125 Z M 13.328125 6.78125 "/></g></g></g><g fill="#7d6f52" fill-opacity="1"><g transform="translate(323.495368, 138.714129)"><g><path d="M 6 4.859375 C 6.0625 5.078125 6.207031 5.382812 6.4375 5.78125 C 6.6875 6.175781 6.878906 6.453125 7.015625 6.609375 L 6.25 7.25 L 0.296875 0.234375 L 1.0625 -0.40625 C 1.21875 -0.238281 1.378906 -0.078125 1.546875 0.078125 C 1.710938 0.234375 1.878906 0.359375 2.046875 0.453125 C 2.304688 0.609375 2.550781 0.664062 2.78125 0.625 C 3.007812 0.570312 3.253906 0.4375 3.515625 0.21875 L 9.625 -4.96875 C 9.882812 -5.1875 10.054688 -5.4375 10.140625 -5.71875 C 10.242188 -6.019531 10.285156 -6.300781 10.265625 -6.5625 C 10.242188 -6.769531 10.175781 -6.992188 10.0625 -7.234375 C 9.945312 -7.460938 9.804688 -7.707031 9.640625 -7.96875 L 10.40625 -8.609375 L 14.921875 -3.8125 L 14.890625 -3.53125 L 6.5625 3.53125 C 6.3125 3.738281 6.140625 3.941406 6.046875 4.140625 C 5.960938 4.367188 5.945312 4.609375 6 4.859375 Z M 18.796875 1.34375 C 18.773438 1.988281 18.53125 2.53125 18.0625 2.96875 C 17.59375 3.414062 17.039062 3.632812 16.40625 3.625 C 15.78125 3.625 15.238281 3.390625 14.78125 2.921875 C 14.332031 2.460938 14.113281 1.910156 14.125 1.265625 C 14.125 1.265625 14.125 1.253906 14.125 1.234375 C 14.125 1.222656 14.117188 1.207031 14.109375 1.1875 L 14.09375 1.203125 C 14.125 0.773438 14.054688 0.410156 13.890625 0.109375 C 13.734375 -0.191406 13.539062 -0.445312 13.3125 -0.65625 L 13.234375 -1.03125 L 14.328125 -1.96875 C 15.160156 -1.820312 15.835938 -1.632812 16.359375 -1.40625 C 16.878906 -1.1875 17.257812 -0.988281 17.5 -0.8125 C 17.75 -0.632812 17.875 -0.546875 17.875 -0.546875 L 17.859375 -0.5625 C 18.160156 -0.332031 18.390625 -0.0546875 18.546875 0.265625 C 18.710938 0.585938 18.796875 0.945312 18.796875 1.34375 Z M 18.796875 1.34375 "/></g></g></g><g fill="#7d6f52" fill-opacity="1"><g transform="translate(334.90786, 152.991394)"><g><path d="M 9.359375 11.125 L 9.078125 12.375 C 8.484375 12.300781 7.878906 12.144531 7.265625 11.90625 C 6.648438 11.675781 6.082031 11.359375 5.5625 10.953125 C 5.007812 10.535156 4.515625 10.078125 4.078125 9.578125 C 3.679688 9.066406 3.320312 8.4375 3 7.6875 C 2.445312 6.425781 2.160156 5.273438 2.140625 4.234375 C 2.078125 3.171875 2.21875 2.222656 2.5625 1.390625 C 2.894531 0.523438 3.414062 -0.222656 4.125 -0.859375 C 4.8125 -1.503906 5.628906 -2.03125 6.578125 -2.4375 C 7.441406 -2.8125 8.332031 -3.015625 9.25 -3.046875 C 10.175781 -3.066406 11.070312 -2.921875 11.9375 -2.609375 C 12.78125 -2.285156 13.570312 -1.773438 14.3125 -1.078125 C 15.050781 -0.347656 15.65625 0.546875 16.125 1.609375 C 16.15625 1.679688 16.179688 1.75 16.203125 1.8125 C 16.234375 1.875 16.265625 1.9375 16.296875 2 L 16.09375 2.078125 C 15.601562 1.546875 15.09375 1.191406 14.5625 1.015625 C 14.03125 0.835938 13.578125 0.742188 13.203125 0.734375 C 12.835938 0.734375 12.65625 0.734375 12.65625 0.734375 C 11.9375 0.796875 11.046875 1.035156 9.984375 1.453125 L 8.921875 1.90625 C 7.203125 2.65625 6.035156 3.554688 5.421875 4.609375 C 4.796875 5.671875 4.796875 6.921875 5.421875 8.359375 C 5.773438 9.171875 6.304688 9.800781 7.015625 10.25 C 7.710938 10.664062 8.492188 10.957031 9.359375 11.125 Z M 14.5 3.90625 C 14.800781 3.625 15.007812 3.328125 15.125 3.015625 L 15.328125 2.90625 C 15.753906 3.082031 16.113281 3.328125 16.40625 3.640625 C 16.707031 3.953125 16.867188 4.117188 16.890625 4.140625 C 16.910156 4.242188 16.921875 4.335938 16.921875 4.421875 C 16.929688 4.503906 16.953125 4.597656 16.984375 4.703125 C 17.003906 5.585938 16.878906 6.382812 16.609375 7.09375 C 16.316406 7.78125 15.894531 8.378906 15.34375 8.890625 C 14.78125 9.378906 14.140625 9.773438 13.421875 10.078125 L 12.609375 10.4375 L 9.375 2.96875 L 10.46875 2.5 L 11.765625 5.484375 C 12.285156 5.265625 12.796875 5.015625 13.296875 4.734375 C 13.804688 4.453125 14.207031 4.175781 14.5 3.90625 Z M 14.5 3.90625 "/></g></g></g></svg>